<svg id="TXT" xmlns="http://www.w3.org/2000/svg" width="1920" height="1157" viewBox="0 0 1920 1157">
  <defs>
    <style>
      .cls-1 {
        fill: #fff;
        fill-rule: evenodd;
      }
    </style>
  </defs>
  <path id="Inspired_by_heritage_experience_styles_that_bridge_the_gap_bet" data-name="Inspired by heritage, experience styles that bridge the gap bet" class="cls-1" d="M232.162,573.282h-2.148v17.493h2.148V573.282Zm5.173,5.023v12.47h2.048v-8.8a4.793,4.793,0,0,1,3.8-2.025,3.1,3.1,0,0,1,3.2,3.4v7.422h2.048V582.8a4.59,4.59,0,0,0-4.921-4.723A5.17,5.17,0,0,0,239.358,580v-1.7h-2.023Zm15.042,9.246V589.6a8.315,8.315,0,0,0,4.7,1.4c2.622,0,4.77-1.25,4.77-3.674,0-2.549-2.373-3.1-3.671-3.423l-1.4-.325c-1.324-.325-2.373-0.675-2.373-1.824,0-1.3,1.3-1.874,2.8-1.874A6.788,6.788,0,0,1,260.844,581V579.03a7.424,7.424,0,0,0-3.721-.95c-2.5,0-4.721,1.075-4.721,3.7,0,2.474,1.923,3.123,3.946,3.6l1.2,0.3c1.2,0.275,2.273.65,2.273,1.749,0,1.125-1.1,1.775-2.822,1.775A7.534,7.534,0,0,1,252.377,587.551Zm19.561-9.471a5.244,5.244,0,0,0-4.146,1.8V578.3h-2.023v17.268h2.048V589.1a5.177,5.177,0,0,0,3.971,1.674c4.1,0,6.169-3.249,6.169-6.472C277.957,581.179,275.959,578.08,271.938,578.08Zm-4.121,8.9v-5.148a4.643,4.643,0,0,1,3.9-1.9c2.873,0,4.2,2.224,4.2,4.448,0,2.274-1.323,4.548-4.221,4.548A4.678,4.678,0,0,1,267.817,586.977Zm15.042-11.121a1.448,1.448,0,0,0,1.573-1.424,1.431,1.431,0,0,0-1.573-1.475A1.45,1.45,0,1,0,282.859,575.856Zm-0.974,14.919h2.048V578.3h-2.048v12.47Zm6.821-12.47v12.47h2.048v-8.7a4.043,4.043,0,0,1,3.6-2,5.838,5.838,0,0,1,1.574.225V578.43a6.753,6.753,0,0,0-1.549-.2,4.142,4.142,0,0,0-3.646,1.949V578.3h-2.023Zm20.784,6.747V584.2c0-3.774-1.848-6.123-5.3-6.123-3.946,0-6.069,3.074-6.069,6.548,0,3.848,2.548,6.372,6.494,6.372a7.74,7.74,0,0,0,4.545-1.4v-2a7,7,0,0,1-4.445,1.6c-2.8,0-4.471-1.525-4.621-4.149h9.391Zm-9.291-1.6c0.325-2.124,1.649-3.549,3.821-3.549a3.249,3.249,0,0,1,3.422,3.549H300.2Zm24.557-10.446h-2.048v6.748a5.194,5.194,0,0,0-4.021-1.675c-3.572,0-6.119,2.674-6.119,6.423,0,3.723,2.522,6.5,6.119,6.5a5.033,5.033,0,0,0,4.046-1.874v1.649h2.023V573.007Zm-10.14,11.5c0-2.649,1.548-4.573,4.271-4.573a4.541,4.541,0,0,1,3.821,1.9v5.4a4.631,4.631,0,0,1-3.846,1.925C316.164,589.151,314.616,587.151,314.616,584.5Zm28.831-6.423a5.391,5.391,0,0,0-4.221,1.774v-6.847h-2.048v17.768H339.2v-1.5A5.439,5.439,0,0,0,343.322,591c4,0,6.019-3.3,6.019-6.572C349.341,581.229,347.393,578.08,343.447,578.08Zm-4.221,9.146v-5.4a4.745,4.745,0,0,1,3.9-1.9c2.848,0,4.171,2.274,4.171,4.548,0,2.324-1.3,4.673-4.121,4.673A4.794,4.794,0,0,1,339.226,587.226Zm22.335-8.921-3.971,9.946-3.946-9.946H351.4l5.22,12.4-0.475,1.149a2.907,2.907,0,0,1-2.872,1.95,5.194,5.194,0,0,1-2-.475v1.824a5.3,5.3,0,0,0,2.148.425c2.2,0,3.7-1.25,4.72-3.724l5.62-13.544h-2.2Zm12.5-5.3v17.768h2.048v-8.8a4.793,4.793,0,0,1,3.8-2.025,3.1,3.1,0,0,1,3.2,3.4v7.422h2.048V582.8a4.59,4.59,0,0,0-4.92-4.723,5.174,5.174,0,0,0-4.121,1.9v-6.972h-2.048Zm26.256,12.045V584.2c0-3.774-1.848-6.123-5.3-6.123-3.946,0-6.069,3.074-6.069,6.548,0,3.848,2.548,6.372,6.494,6.372a7.74,7.74,0,0,0,4.545-1.4v-2a7,7,0,0,1-4.445,1.6c-2.8,0-4.471-1.525-4.621-4.149h9.391Zm-9.291-1.6c0.325-2.124,1.648-3.549,3.821-3.549a3.249,3.249,0,0,1,3.422,3.549h-7.243Zm13.243-5.148v12.47h2.048v-8.7a4.043,4.043,0,0,1,3.6-2,5.838,5.838,0,0,1,1.574.225V578.43a6.753,6.753,0,0,0-1.549-.2,4.142,4.142,0,0,0-3.646,1.949V578.3h-2.023Zm11.518-2.449a1.448,1.448,0,0,0,1.573-1.424,1.431,1.431,0,0,0-1.573-1.475A1.45,1.45,0,1,0,415.783,575.856Zm-0.974,14.919h2.048V578.3h-2.048v12.47Zm15.463-12.47h-5.146v-4.1h-2.048v4.1h-3.071v1.824h3.071v6.4A4.238,4.238,0,0,0,427.524,591a5.717,5.717,0,0,0,3.047-.875v-1.874a5.043,5.043,0,0,1-2.722.9,2.575,2.575,0,0,1-2.723-2.874v-6.148h5.146V578.3Zm12.817,12.47V582.1c0-2.5-1.674-4.024-4.621-4.024a6.875,6.875,0,0,0-4.52,1.525v2.024a6.509,6.509,0,0,1,4.37-1.725c1.749,0,2.748.725,2.748,1.875,0,1.074-.874,1.374-1.948,1.624l-1.724.425c-1.573.375-4.246,1.049-4.246,3.848,0,2.3,1.7,3.324,3.747,3.324a4.739,4.739,0,0,0,4.2-2.274v2.049h2Zm-7.893-3.2c0-1.574,1.374-1.974,2.648-2.3l1.174-.3a8.692,8.692,0,0,0,2.048-.7v1.349a3.654,3.654,0,0,1-3.8,3.674C436.1,589.3,435.2,588.826,435.2,587.576Zm24.282-9.271H452.81c-4.1,0-5.5,2.624-5.5,4.723a4.153,4.153,0,0,0,2.373,3.8,1.893,1.893,0,0,0-1.749,1.849,1.981,1.981,0,0,0,1.849,1.849c-2.073.35-3.147,1.474-3.147,3,0,2.374,2.572,3.273,5.669,3.273,3.272,0,6.244-1.024,6.244-3.723,0-2.624-2.8-3.224-4.895-3.3l-1.723-.075c-0.625-.025-2.148-0.125-2.148-1.124,0-.85,1.149-1.025,2.347-1.175,3.347-.424,5.245-1.9,5.245-4.448a3.153,3.153,0,0,0-1.473-2.824h3.571V578.3Zm-10.889,15.019c0-1.6,1.9-1.9,3.946-1.9,2.822,0,4.046.574,4.046,1.774,0,1.524-1.9,2-4.2,2C450.337,595.2,448.589,594.848,448.589,593.324Zm0.674-10.371a3.108,3.108,0,1,1,3.1,2.849A2.854,2.854,0,0,1,449.263,582.953Zm23.508,2.1V584.2c0-3.774-1.848-6.123-5.3-6.123-3.946,0-6.069,3.074-6.069,6.548,0,3.848,2.548,6.372,6.494,6.372a7.745,7.745,0,0,0,4.546-1.4v-2A7,7,0,0,1,468,589.2c-2.8,0-4.471-1.525-4.621-4.149h9.391Zm-9.291-1.6c0.325-2.124,1.649-3.549,3.822-3.549a3.248,3.248,0,0,1,3.421,3.549H463.48ZM475.6,593.724h1.9l1.649-6.3h-2.1Zm24.582-8.672V584.2c0-3.774-1.849-6.123-5.295-6.123-3.946,0-6.069,3.074-6.069,6.548,0,3.848,2.547,6.372,6.493,6.372a7.743,7.743,0,0,0,4.546-1.4v-2a7,7,0,0,1-4.446,1.6c-2.8,0-4.47-1.525-4.62-4.149h9.391Zm-9.291-1.6c0.324-2.124,1.648-3.549,3.821-3.549a3.248,3.248,0,0,1,3.421,3.549H490.89Zm23.383-5.148h-2.448l-3.347,4.523-3.4-4.523h-2.422l4.645,6.048-4.92,6.422h2.473l3.621-4.848,3.6,4.848h2.472l-4.9-6.422Zm9.746-.225a5.243,5.243,0,0,0-4.146,1.8V578.3H517.85v17.268H519.9V589.1a5.175,5.175,0,0,0,3.971,1.674c4.1,0,6.169-3.249,6.169-6.472C530.038,581.179,528.04,578.08,524.019,578.08Zm-4.121,8.9v-5.148a4.643,4.643,0,0,1,3.9-1.9c2.872,0,4.2,2.224,4.2,4.448,0,2.274-1.324,4.548-4.221,4.548A4.676,4.676,0,0,1,519.9,586.977Zm24.557-1.925V584.2c0-3.774-1.848-6.123-5.3-6.123-3.946,0-6.069,3.074-6.069,6.548,0,3.848,2.548,6.372,6.494,6.372a7.74,7.74,0,0,0,4.545-1.4v-2a7,7,0,0,1-4.445,1.6c-2.8,0-4.471-1.525-4.621-4.149h9.391Zm-9.291-1.6c0.325-2.124,1.649-3.549,3.821-3.549a3.249,3.249,0,0,1,3.422,3.549h-7.243Zm13.243-5.148v12.47h2.048v-8.7a4.043,4.043,0,0,1,3.6-2,5.838,5.838,0,0,1,1.574.225V578.43a6.753,6.753,0,0,0-1.549-.2,4.142,4.142,0,0,0-3.646,1.949V578.3h-2.023Zm11.518-2.449a1.448,1.448,0,0,0,1.574-1.424,1.432,1.432,0,0,0-1.574-1.475A1.45,1.45,0,1,0,559.925,575.856Zm-0.974,14.919H561V578.3h-2.048v12.47Zm17.311-5.723V584.2c0-3.774-1.848-6.123-5.295-6.123-3.946,0-6.069,3.074-6.069,6.548,0,3.848,2.547,6.372,6.494,6.372a7.742,7.742,0,0,0,4.545-1.4v-2a7,7,0,0,1-4.445,1.6c-2.8,0-4.471-1.525-4.621-4.149h9.391Zm-9.291-1.6c0.325-2.124,1.648-3.549,3.821-3.549a3.249,3.249,0,0,1,3.422,3.549h-7.243Zm13.243-5.148v12.47h2.048v-8.8a4.791,4.791,0,0,1,3.8-2.025,3.1,3.1,0,0,1,3.2,3.4v7.422H591.3V582.8a4.59,4.59,0,0,0-4.92-4.723A5.169,5.169,0,0,0,582.237,580v-1.7h-2.023Zm21.385,1.649a6,6,0,0,1,3.547,1.2v-1.949a6.009,6.009,0,0,0-3.672-1.125,6.186,6.186,0,0,0-6.368,6.5,6.412,6.412,0,0,0,10.04,5.3v-1.949a6.059,6.059,0,0,1-3.547,1.2,4.19,4.19,0,0,1-4.445-4.523A4.3,4.3,0,0,1,601.6,579.954Zm17.963,5.1V584.2c0-3.774-1.848-6.123-5.295-6.123-3.946,0-6.069,3.074-6.069,6.548,0,3.848,2.548,6.372,6.494,6.372a7.74,7.74,0,0,0,4.545-1.4v-2a7,7,0,0,1-4.445,1.6c-2.8,0-4.471-1.525-4.621-4.149h9.391Zm-9.291-1.6c0.325-2.124,1.648-3.549,3.821-3.549a3.249,3.249,0,0,1,3.422,3.549h-7.243Zm19.14,4.1V589.6a8.315,8.315,0,0,0,4.7,1.4c2.623,0,4.771-1.25,4.771-3.674,0-2.549-2.373-3.1-3.672-3.423l-1.4-.325c-1.324-.325-2.373-0.675-2.373-1.824,0-1.3,1.3-1.874,2.8-1.874A6.788,6.788,0,0,1,637.878,581V579.03a7.425,7.425,0,0,0-3.722-.95c-2.5,0-4.72,1.075-4.72,3.7,0,2.474,1.923,3.123,3.946,3.6l1.2,0.3c1.2,0.275,2.273.65,2.273,1.749,0,1.125-1.1,1.775-2.822,1.775A7.534,7.534,0,0,1,629.411,587.551Zm22.034-9.246H646.3v-4.1h-2.048v4.1H641.18v1.824h3.072v6.4A4.238,4.238,0,0,0,648.7,591a5.717,5.717,0,0,0,3.047-.875v-1.874a5.043,5.043,0,0,1-2.722.9,2.574,2.574,0,0,1-2.722-2.874v-6.148h5.145V578.3Zm12.267,0-3.971,9.946L655.8,578.3h-2.248l5.22,12.4-0.474,1.149a2.909,2.909,0,0,1-2.872,1.95,5.19,5.19,0,0,1-2-.475v1.824a5.294,5.294,0,0,0,2.147.425c2.2,0,3.7-1.25,4.721-3.724L665.91,578.3h-2.2Zm7.424,12.47V573.007h-2.048v17.768h2.048Zm15.287-5.723V584.2c0-3.774-1.848-6.123-5.295-6.123-3.946,0-6.069,3.074-6.069,6.548,0,3.848,2.548,6.372,6.494,6.372a7.745,7.745,0,0,0,4.546-1.4v-2a7,7,0,0,1-4.446,1.6c-2.8,0-4.471-1.525-4.621-4.149h9.391Zm-9.291-1.6c0.325-2.124,1.649-3.549,3.822-3.549a3.248,3.248,0,0,1,3.421,3.549h-7.243Zm12.519,4.1V589.6a8.315,8.315,0,0,0,4.7,1.4c2.623,0,4.771-1.25,4.771-3.674,0-2.549-2.373-3.1-3.672-3.423l-1.4-.325c-1.324-.325-2.373-0.675-2.373-1.824,0-1.3,1.3-1.874,2.8-1.874A6.788,6.788,0,0,1,698.118,581V579.03a7.425,7.425,0,0,0-3.722-.95c-2.5,0-4.72,1.075-4.72,3.7,0,2.474,1.923,3.123,3.946,3.6l1.2,0.3c1.2,0.275,2.273.65,2.273,1.749,0,1.125-1.1,1.775-2.823,1.775A7.531,7.531,0,0,1,689.651,587.551Zm28.905-9.246h-5.145v-4.1h-2.048v4.1h-3.072v1.824h3.072v6.4A4.238,4.238,0,0,0,715.808,591a5.717,5.717,0,0,0,3.047-.875v-1.874a5.043,5.043,0,0,1-2.722.9,2.574,2.574,0,0,1-2.722-2.874v-6.148h5.145V578.3Zm3.751-5.3v17.768h2.048v-8.8a4.791,4.791,0,0,1,3.8-2.025,3.1,3.1,0,0,1,3.2,3.4v7.422H733.4V582.8a4.59,4.59,0,0,0-4.92-4.723,5.172,5.172,0,0,0-4.121,1.9v-6.972h-2.048Zm24.832,17.768V582.1c0-2.5-1.673-4.024-4.62-4.024A6.876,6.876,0,0,0,738,579.605v2.024a6.51,6.51,0,0,1,4.371-1.725c1.748,0,2.747.725,2.747,1.875,0,1.074-.874,1.374-1.948,1.624l-1.723.425c-1.574.375-4.246,1.049-4.246,3.848,0,2.3,1.7,3.324,3.746,3.324a4.738,4.738,0,0,0,4.2-2.274v2.049h2Zm-7.892-3.2c0-1.574,1.374-1.974,2.647-2.3l1.174-.3a8.692,8.692,0,0,0,2.048-.7v1.349a3.654,3.654,0,0,1-3.8,3.674C740.146,589.3,739.247,588.826,739.247,587.576Zm21.21-9.271h-5.145v-4.1h-2.048v4.1h-3.072v1.824h3.072v6.4A4.238,4.238,0,0,0,757.709,591a5.717,5.717,0,0,0,3.047-.875v-1.874a5.043,5.043,0,0,1-2.722.9,2.574,2.574,0,0,1-2.722-2.874v-6.148h5.145V578.3ZM236.2,615.08a5.387,5.387,0,0,0-4.221,1.775v-6.848h-2.048v17.768h2.023v-1.5A5.437,5.437,0,0,0,236.07,628c4,0,6.019-3.3,6.019-6.572C242.089,618.229,240.141,615.08,236.2,615.08Zm-4.221,9.146v-5.4a4.746,4.746,0,0,1,3.9-1.9c2.847,0,4.171,2.275,4.171,4.549,0,2.324-1.3,4.673-4.121,4.673A4.794,4.794,0,0,1,231.974,624.226Zm14.068-8.921v12.47h2.047v-8.7a4.045,4.045,0,0,1,3.6-2,5.825,5.825,0,0,1,1.573.225V615.43a6.738,6.738,0,0,0-1.548-.2,4.141,4.141,0,0,0-3.646,1.949V615.3h-2.023Zm11.518-2.449a1.448,1.448,0,0,0,1.573-1.424,1.431,1.431,0,0,0-1.573-1.475A1.45,1.45,0,1,0,257.56,612.856Zm-0.974,14.919h2.047V615.3h-2.047v12.47Zm18.135-17.768h-2.048v6.748a5.194,5.194,0,0,0-4.021-1.675c-3.572,0-6.119,2.674-6.119,6.423,0,3.723,2.522,6.5,6.119,6.5a5.033,5.033,0,0,0,4.046-1.874v1.649h2.023V610.007Zm-10.14,11.5c0-2.649,1.548-4.574,4.27-4.574a4.544,4.544,0,0,1,3.822,1.9v5.4a4.633,4.633,0,0,1-3.847,1.925C266.129,626.151,264.581,624.151,264.581,621.5Zm26.655-6.2h-6.669c-4.1,0-5.494,2.624-5.494,4.723a4.155,4.155,0,0,0,2.372,3.8,1.893,1.893,0,0,0-1.748,1.849,1.98,1.98,0,0,0,1.848,1.849c-2.073.35-3.147,1.474-3.147,3,0,2.374,2.573,3.273,5.67,3.273,3.272,0,6.244-1.024,6.244-3.723,0-2.624-2.8-3.224-4.9-3.3l-1.724-.075c-0.624-.025-2.148-0.125-2.148-1.124,0-.85,1.149-1.025,2.348-1.175,3.347-.424,5.245-1.9,5.245-4.448a3.154,3.154,0,0,0-1.474-2.824h3.572V615.3Zm-10.89,15.019c0-1.6,1.9-1.9,3.947-1.9,2.822,0,4.046.574,4.046,1.774,0,1.524-1.9,2-4.2,2C282.1,632.2,280.346,631.848,280.346,630.324Zm0.675-10.371a3.108,3.108,0,1,1,3.1,2.849A2.854,2.854,0,0,1,281.021,619.953Zm23.508,2.1V621.2c0-3.774-1.848-6.123-5.3-6.123-3.946,0-6.069,3.074-6.069,6.548,0,3.848,2.547,6.372,6.494,6.372a7.74,7.74,0,0,0,4.545-1.4v-2a7,7,0,0,1-4.445,1.6c-2.8,0-4.471-1.525-4.621-4.149h9.391Zm-9.291-1.6c0.325-2.124,1.648-3.549,3.821-3.549a3.249,3.249,0,0,1,3.422,3.549h-7.243Zm28.756-5.148h-5.145v-4.1H316.8v4.1h-3.072v1.824H316.8v6.4A4.237,4.237,0,0,0,321.246,628a5.717,5.717,0,0,0,3.047-.875v-1.874a5.043,5.043,0,0,1-2.722.9,2.574,2.574,0,0,1-2.722-2.874v-6.148h5.145V615.3Zm3.751-5.3v17.768h2.048v-8.8a4.793,4.793,0,0,1,3.8-2.025,3.1,3.1,0,0,1,3.2,3.4v7.422h2.048V619.8a4.59,4.59,0,0,0-4.92-4.723,5.172,5.172,0,0,0-4.121,1.9v-6.972h-2.048ZM354,622.052V621.2c0-3.774-1.848-6.123-5.295-6.123-3.946,0-6.069,3.074-6.069,6.548,0,3.848,2.547,6.372,6.494,6.372a7.742,7.742,0,0,0,4.545-1.4v-2a7,7,0,0,1-4.446,1.6c-2.8,0-4.47-1.525-4.62-4.149H354Zm-9.291-1.6c0.324-2.124,1.648-3.549,3.821-3.549a3.249,3.249,0,0,1,3.422,3.549H344.71Zm31.828-5.148h-6.669c-4.1,0-5.5,2.624-5.5,4.723a4.156,4.156,0,0,0,2.373,3.8A1.892,1.892,0,0,0,365,625.676a1.98,1.98,0,0,0,1.848,1.849c-2.073.35-3.147,1.474-3.147,3,0,2.374,2.573,3.273,5.67,3.273,3.271,0,6.244-1.024,6.244-3.723,0-2.624-2.8-3.224-4.9-3.3L369,626.7c-0.624-.025-2.148-0.125-2.148-1.124,0-.85,1.149-1.025,2.348-1.175,3.346-.424,5.245-1.9,5.245-4.448a3.154,3.154,0,0,0-1.474-2.824h3.572V615.3Zm-10.89,15.019c0-1.6,1.9-1.9,3.946-1.9,2.823,0,4.046.574,4.046,1.774,0,1.524-1.9,2-4.2,2C367.4,632.2,365.648,631.848,365.648,630.324Zm0.675-10.371a3.108,3.108,0,1,1,3.1,2.849A2.854,2.854,0,0,1,366.323,619.953Zm22.034,7.822V619.1c0-2.5-1.673-4.024-4.621-4.024a6.875,6.875,0,0,0-4.52,1.525v2.024a6.51,6.51,0,0,1,4.371-1.725c1.748,0,2.747.725,2.747,1.875,0,1.074-.874,1.374-1.948,1.624l-1.723.425c-1.574.375-4.246,1.049-4.246,3.848,0,2.3,1.7,3.324,3.746,3.324a4.739,4.739,0,0,0,4.2-2.274v2.049h2Zm-7.892-3.2c0-1.574,1.373-1.974,2.647-2.3l1.174-.3a8.646,8.646,0,0,0,2.048-.7v1.349a3.654,3.654,0,0,1-3.8,3.674C381.364,626.3,380.465,625.826,380.465,624.576Zm18.737-9.5a5.243,5.243,0,0,0-4.146,1.8V615.3h-2.023v17.268h2.048V626.1a5.175,5.175,0,0,0,3.971,1.674c4.1,0,6.169-3.249,6.169-6.472C405.221,618.179,403.223,615.08,399.2,615.08Zm-4.121,8.9v-5.148a4.644,4.644,0,0,1,3.9-1.9c2.872,0,4.2,2.225,4.2,4.449,0,2.274-1.324,4.548-4.221,4.548A4.678,4.678,0,0,1,395.081,623.977Zm27.458-8.9a5.387,5.387,0,0,0-4.221,1.775v-6.848H416.27v17.768h2.023v-1.5A5.437,5.437,0,0,0,422.414,628c4,0,6.019-3.3,6.019-6.572C428.433,618.229,426.485,615.08,422.539,615.08Zm-4.221,9.146v-5.4a4.745,4.745,0,0,1,3.9-1.9c2.847,0,4.171,2.275,4.171,4.549,0,2.324-1.3,4.673-4.121,4.673A4.793,4.793,0,0,1,418.318,624.226Zm24.557-2.174V621.2c0-3.774-1.848-6.123-5.3-6.123-3.946,0-6.069,3.074-6.069,6.548,0,3.848,2.548,6.372,6.494,6.372a7.74,7.74,0,0,0,4.545-1.4v-2a7,7,0,0,1-4.445,1.6c-2.8,0-4.471-1.525-4.621-4.149h9.391Zm-9.291-1.6c0.325-2.124,1.649-3.549,3.821-3.549a3.249,3.249,0,0,1,3.422,3.549h-7.243Zm21.885-5.148h-5.145v-4.1h-2.049v4.1H445.2v1.824h3.071v6.4A4.238,4.238,0,0,0,452.721,628a5.717,5.717,0,0,0,3.047-.875v-1.874a5.043,5.043,0,0,1-2.722.9,2.574,2.574,0,0,1-2.722-2.874v-6.148h5.145V615.3Zm19.061,0-3.422,9.7-3.072-9.7h-1.748l-3.047,9.7-3.422-9.7H457.6l4.721,12.47h1.823l3.022-9.046,3.047,9.046h1.8l4.746-12.47H474.53Zm15.643,6.747V621.2c0-3.774-1.848-6.123-5.3-6.123-3.946,0-6.069,3.074-6.069,6.548,0,3.848,2.548,6.372,6.494,6.372a7.74,7.74,0,0,0,4.545-1.4v-2a7,7,0,0,1-4.445,1.6c-2.8,0-4.471-1.525-4.621-4.149h9.391Zm-9.291-1.6c0.325-2.124,1.649-3.549,3.821-3.549a3.249,3.249,0,0,1,3.422,3.549h-7.243Zm23.733,1.6V621.2c0-3.774-1.849-6.123-5.3-6.123-3.946,0-6.069,3.074-6.069,6.548,0,3.848,2.547,6.372,6.493,6.372a7.743,7.743,0,0,0,4.546-1.4v-2a7,7,0,0,1-4.446,1.6c-2.8,0-4.47-1.525-4.62-4.149h9.391Zm-9.291-1.6c0.324-2.124,1.648-3.549,3.821-3.549a3.249,3.249,0,0,1,3.422,3.549h-7.243Zm13.243-5.148v12.47h2.047v-8.8a4.794,4.794,0,0,1,3.8-2.025,3.1,3.1,0,0,1,3.2,3.4v7.422h2.048V619.8a4.591,4.591,0,0,0-4.921-4.723A5.17,5.17,0,0,0,510.589,617v-1.7h-2.022Zm24.31,1.824v10.646h2.048V617.129h4.1V615.3h-4.1v-1.4a2.223,2.223,0,0,1,2.448-2.374,4.67,4.67,0,0,1,2.323.674v-1.9a6.2,6.2,0,0,0-2.648-.624,3.946,3.946,0,0,0-4.171,4.223v1.4h-2.8v1.824h2.8Zm14.815-2.049A6.043,6.043,0,0,0,541.5,621.5c0,3.823,2.573,6.5,6.194,6.5s6.169-2.624,6.169-6.422C553.861,617.754,551.314,615.08,547.692,615.08Zm-4.146,6.448c0-2.8,1.6-4.574,4.146-4.574s4.121,1.825,4.121,4.6c0,2.8-1.6,4.573-4.121,4.573C545.12,626.126,543.546,624.3,543.546,621.528Zm14.243-6.223v12.47h2.048v-8.7a4.043,4.043,0,0,1,3.6-2,5.838,5.838,0,0,1,1.574.225V615.43a6.753,6.753,0,0,0-1.549-.2,4.142,4.142,0,0,0-3.646,1.949V615.3h-2.023Zm10.544,0v12.47h2.048V618.9a4.065,4.065,0,0,1,3.346-1.95c1.749,0,3.047,1.175,3.047,3.374v7.447h2.048V618.9a4,4,0,0,1,3.347-1.95c1.749,0,3.022,1.175,3.022,3.374v7.447h2.048v-7.822a4.557,4.557,0,0,0-4.8-4.873,5.442,5.442,0,0,0-4.4,2.2,4.752,4.752,0,0,0-7.692-.449V615.3h-2.023Zm39.773,12.47V619.1c0-2.5-1.673-4.024-4.62-4.024a6.878,6.878,0,0,0-4.521,1.525v2.024a6.512,6.512,0,0,1,4.371-1.725c1.748,0,2.747.725,2.747,1.875,0,1.074-.874,1.374-1.948,1.624l-1.723.425c-1.573.375-4.246,1.049-4.246,3.848,0,2.3,1.7,3.324,3.746,3.324a4.738,4.738,0,0,0,4.2-2.274v2.049h2Zm-7.892-3.2c0-1.574,1.374-1.974,2.647-2.3l1.174-.3a8.631,8.631,0,0,0,2.048-.7v1.349a3.654,3.654,0,0,1-3.8,3.674C601.113,626.3,600.214,625.826,600.214,624.576Zm12.568-9.271v12.47h2.048v-8.8a4.793,4.793,0,0,1,3.8-2.025,3.1,3.1,0,0,1,3.2,3.4v7.422h2.048V619.8a4.59,4.59,0,0,0-4.92-4.723A5.17,5.17,0,0,0,614.8,617v-1.7h-2.023Zm27.08-5.3h-2.048v6.748a5.192,5.192,0,0,0-4.021-1.675c-3.571,0-6.119,2.674-6.119,6.423,0,3.723,2.523,6.5,6.119,6.5a5.031,5.031,0,0,0,4.046-1.874v1.649h2.023V610.007Zm-10.14,11.5c0-2.649,1.549-4.574,4.271-4.574a4.541,4.541,0,0,1,3.821,1.9v5.4a4.631,4.631,0,0,1-3.846,1.925C631.271,626.151,629.722,624.151,629.722,621.5Zm23.487-4.374v10.646h2.048V617.129h4.1V615.3h-4.1v-1.4a2.222,2.222,0,0,1,2.447-2.374,4.664,4.664,0,0,1,2.323.674v-1.9a6.2,6.2,0,0,0-2.647-.624,3.945,3.945,0,0,0-4.171,4.223v1.4h-2.8v1.824h2.8Zm20.809-1.824H671.97v8.846a4.619,4.619,0,0,1-3.672,1.975c-1.748,0-3.2-1.15-3.2-3.5V615.3h-2.023v7.822a4.607,4.607,0,0,0,4.9,4.873A5.14,5.14,0,0,0,672,626.151v1.624h2.023V615.3Zm4.827,0v12.47h2.048v-8.8a4.791,4.791,0,0,1,3.8-2.025,3.1,3.1,0,0,1,3.2,3.4v7.422h2.048V619.8a4.591,4.591,0,0,0-4.921-4.723A5.167,5.167,0,0,0,680.868,617v-1.7h-2.023Zm21.385,1.649a6,6,0,0,1,3.547,1.2v-1.949a6.009,6.009,0,0,0-3.672-1.125,6.187,6.187,0,0,0-6.369,6.5,6.412,6.412,0,0,0,10.041,5.3v-1.949a6.059,6.059,0,0,1-3.547,1.2,4.19,4.19,0,0,1-4.445-4.523A4.3,4.3,0,0,1,700.23,616.954Zm16.115-1.649H711.2v-4.1h-2.048v4.1H706.08v1.824h3.072v6.4A4.237,4.237,0,0,0,713.6,628a5.717,5.717,0,0,0,3.047-.875v-1.874a5.043,5.043,0,0,1-2.722.9,2.574,2.574,0,0,1-2.722-2.874v-6.148h5.145V615.3Zm4.725-2.449a1.448,1.448,0,0,0,1.573-1.424,1.431,1.431,0,0,0-1.573-1.475A1.45,1.45,0,1,0,721.07,612.856ZM720.1,627.775h2.048V615.3H720.1v12.47Zm12.141-12.695a6.043,6.043,0,0,0-6.194,6.423c0,3.823,2.572,6.5,6.194,6.5s6.169-2.624,6.169-6.422C738.406,617.754,735.858,615.08,732.237,615.08Zm-4.146,6.448c0-2.8,1.6-4.574,4.146-4.574s4.121,1.825,4.121,4.6c0,2.8-1.6,4.573-4.121,4.573C729.664,626.126,728.091,624.3,728.091,621.528Zm14.242-6.223v12.47h2.048v-8.8a4.791,4.791,0,0,1,3.8-2.025,3.1,3.1,0,0,1,3.2,3.4v7.422h2.048V619.8a4.59,4.59,0,0,0-4.92-4.723A5.169,5.169,0,0,0,744.356,617v-1.7h-2.023Zm16.39,9.721a1.438,1.438,0,1,0,1.5,1.425A1.359,1.359,0,0,0,758.723,625.026Z"/>
  <g id="CTAS_copy" data-name="CTAS copy">
    <path id="Shop_Heritage_" data-name="Shop Heritage " class="cls-1" d="M267.615,719.517a7.3,7.3,0,0,0,3.285-.782,6.557,6.557,0,0,0,2.566-2.258,6.063,6.063,0,0,0,.99-3.462,5.233,5.233,0,0,0-1.425-3.793,12.86,12.86,0,0,0-3.916-2.619,10.859,10.859,0,0,1-3.285-2.153,3.7,3.7,0,0,1-1.035-2.634,3.068,3.068,0,0,1,.87-2.242,3.126,3.126,0,0,1,2.34-.888,4.828,4.828,0,0,1,2.85.888,5.641,5.641,0,0,1,1.951,2.875h0.39v-4.094a12.184,12.184,0,0,0-5.131-.994,6.927,6.927,0,0,0-3.03.647,5.123,5.123,0,0,0-2.116,1.807,4.62,4.62,0,0,0-.765,2.6,5.645,5.645,0,0,0,1.245,3.672,10.574,10.574,0,0,0,3.646,2.709,11.6,11.6,0,0,1,3.6,2.409,4.1,4.1,0,0,1,1.081,2.829,4.21,4.21,0,0,1-1.051,3.011,3.652,3.652,0,0,1-2.79,1.114,4.508,4.508,0,0,1-3.57-1.43,10.982,10.982,0,0,1-2.071-4.17h-0.39v5.088a8.233,8.233,0,0,0,2.521,1.324,9.781,9.781,0,0,0,3.24.542h0Zm14.372-.542v-0.511l-0.78-.271a1.054,1.054,0,0,1-.72-1.084v-9.242h10.741v9.242a1.329,1.329,0,0,1-.15.677,1.025,1.025,0,0,1-.57.407l-0.75.271v0.511h5.851v-0.511l-0.78-.271a1.054,1.054,0,0,1-.72-1.084v-17.34a1.074,1.074,0,0,1,.75-1.113l0.75-.241V697.9h-5.851v0.512l0.75,0.271a1.023,1.023,0,0,1,.72,1.083v6.744H280.487v-6.744a1.023,1.023,0,0,1,.72-1.083l0.78-.271V697.9h-5.851v0.512l0.75,0.271a1.023,1.023,0,0,1,.72,1.083v17.34a1.329,1.329,0,0,1-.15.677,1.025,1.025,0,0,1-.57.407l-0.75.271v0.511h5.851Zm26.644,0.542a11.247,11.247,0,0,0,9.706-5.494,10.993,10.993,0,0,0,0-11.138,11.222,11.222,0,0,0-4.1-4.034,11.308,11.308,0,0,0-11.221,0,11.214,11.214,0,0,0-4.1,4.034,10.993,10.993,0,0,0,0,11.138,11.247,11.247,0,0,0,9.707,5.494h0Zm0.3-1.354a6.863,6.863,0,0,1-4.171-1.37,9.162,9.162,0,0,1-2.91-3.688,12.168,12.168,0,0,1-1.051-5.087,11.409,11.409,0,0,1,.946-4.666,8.192,8.192,0,0,1,2.655-3.387,6.494,6.494,0,0,1,3.93-1.249,6.863,6.863,0,0,1,4.171,1.37,9.157,9.157,0,0,1,2.911,3.7,12.237,12.237,0,0,1,1.05,5.073,11.412,11.412,0,0,1-.945,4.666,8.192,8.192,0,0,1-2.656,3.386,6.488,6.488,0,0,1-3.93,1.25h0Zm18.632,0.812v-0.511l-0.78-.271a1.054,1.054,0,0,1-.72-1.084v-8.068a14,14,0,0,0,3.27.3,7.61,7.61,0,0,0,3.721-.828,5.332,5.332,0,0,0,2.22-2.2,6.464,6.464,0,0,0,.72-3.056,4.517,4.517,0,0,0-.915-2.784,5.913,5.913,0,0,0-2.6-1.9,10.311,10.311,0,0,0-3.871-.677h-6.9v0.512l0.75,0.271a1.023,1.023,0,0,1,.72,1.083v17.34a1.329,1.329,0,0,1-.15.677,1.025,1.025,0,0,1-.57.407l-0.75.271v0.511h5.851Zm1.38-10.987a10.294,10.294,0,0,1-2.88-.392v-8.007a2.856,2.856,0,0,1,.87-0.3,5.813,5.813,0,0,1,1.2-.121,5.323,5.323,0,0,1,3.661,1.174,3.882,3.882,0,0,1,1.32,3.041,4.935,4.935,0,0,1-1.095,3.326,3.829,3.829,0,0,1-3.076,1.28h0Zm22.383,10.987v-0.511l-0.78-.271a1.054,1.054,0,0,1-.72-1.084v-9.242h10.741v9.242a1.329,1.329,0,0,1-.15.677,1.025,1.025,0,0,1-.57.407l-0.75.271v0.511h5.851v-0.511l-0.78-.271a1.054,1.054,0,0,1-.72-1.084v-17.34a1.074,1.074,0,0,1,.75-1.113l0.75-.241V697.9H359.1v0.512l0.75,0.271a1.023,1.023,0,0,1,.72,1.083v6.744H349.826v-6.744a1.023,1.023,0,0,1,.72-1.083l0.78-.271V697.9h-5.851v0.512l0.75,0.271a1.023,1.023,0,0,1,.72,1.083v17.34a1.329,1.329,0,0,1-.15.677,1.025,1.025,0,0,1-.57.407l-0.75.271v0.511h5.851Zm28.744,0,0.48-3.672h-0.39l-0.63,1.2a1.972,1.972,0,0,1-.795.843,2.653,2.653,0,0,1-1.276.271h-6.33V708.2h4.23a1.731,1.731,0,0,1,.93.226,1.877,1.877,0,0,1,.63.738l0.39,0.752h0.36v-4.786h-0.36l-0.39.752a1.87,1.87,0,0,1-.63.738,1.731,1.731,0,0,1-.93.226h-4.23v-7.586h5.52a2.343,2.343,0,0,1,1.126.225,1.57,1.57,0,0,1,.645.828l0.39,1.084h0.36V697.9H366.778v0.512l0.75,0.271a1.023,1.023,0,0,1,.72,1.083v17.34a1.329,1.329,0,0,1-.15.677,1.025,1.025,0,0,1-.57.407l-0.75.271v0.511H380.07Zm7.95,0v-0.511l-0.78-.271a1.054,1.054,0,0,1-.72-1.084v-8.038h1.95a3.255,3.255,0,0,1,1.7.362,4.522,4.522,0,0,1,1.275,1.475l3.96,6.592a3.967,3.967,0,0,0,.916,1.144,1.8,1.8,0,0,0,1.125.331h3.21v-0.511a4.705,4.705,0,0,1-1.41-.587,3.377,3.377,0,0,1-.93-1.009l-3.751-5.689a12.47,12.47,0,0,0-1.515-1.972,3.573,3.573,0,0,0-1.515-.8,6.827,6.827,0,0,0,3.435-1.957,4.729,4.729,0,0,0,1.306-3.311,4.528,4.528,0,0,0-1.891-3.823,8.432,8.432,0,0,0-5.16-1.415H382.17v0.512l0.75,0.271a1.052,1.052,0,0,1,.72,1.083v17.34a1.054,1.054,0,0,1-.72,1.084l-0.75.271v0.511h5.85Zm-1.5-11.258v-8.128a3.556,3.556,0,0,1,.93-0.286,6.431,6.431,0,0,1,1.29-.136,4.916,4.916,0,0,1,3.421,1.114,3.685,3.685,0,0,1,1.23,2.86,5.037,5.037,0,0,1-1.05,3.281,3.623,3.623,0,0,1-2.85,1.295H386.52ZM407.7,718.975v-0.511l-0.78-.271a1.054,1.054,0,0,1-.72-1.084v-17.34a1.023,1.023,0,0,1,.72-1.083l0.78-.271V697.9h-5.851v0.512l0.75,0.271a1.023,1.023,0,0,1,.72,1.083v17.34a1.329,1.329,0,0,1-.15.677,1.025,1.025,0,0,1-.57.407l-0.75.271v0.511H407.7Zm12.722,0v-0.511l-0.781-.271a1.054,1.054,0,0,1-.72-1.084V699.258h4.561a1.528,1.528,0,0,1,1.08.361,2.547,2.547,0,0,1,.63,1.114l0.33,1.053h0.36V697.9h-16.8v3.883h0.39l0.33-1.053a2.547,2.547,0,0,1,.63-1.114,1.528,1.528,0,0,1,1.08-.361h4.531v17.851a1.329,1.329,0,0,1-.15.677,1.025,1.025,0,0,1-.57.407l-0.75.271v0.511h5.851Zm21.663-.752a2.363,2.363,0,0,1-1.351-1.355l-7.951-19.386h-0.36l-8.011,19.356a2.5,2.5,0,0,1-1.32,1.355l-0.63.271v0.511H427v-0.511l-0.63-.241a0.708,0.708,0,0,1-.54-0.723,1.4,1.4,0,0,1,.12-0.572l1.65-4h8.672l1.65,4.094a1.063,1.063,0,0,1,.09.421,0.763,0.763,0,0,1-.15.452,1,1,0,0,1-.42.331l-0.57.241v0.511h5.941v-0.511Zm-6.361-6.653h-7.592l3.811-9.3Zm17.792,7.947a11.857,11.857,0,0,0,8.011-2.558v-5.178a1.023,1.023,0,0,1,.72-1.084l0.78-.271v-0.512h-5.851v0.512l0.751,0.271a1.023,1.023,0,0,1,.72,1.084v4.485a7.433,7.433,0,0,1-9.3.5,8.692,8.692,0,0,1-2.73-3.718,13.375,13.375,0,0,1-.93-5.027,11.007,11.007,0,0,1,.975-4.651,8.128,8.128,0,0,1,2.82-3.387,7.482,7.482,0,0,1,4.336-1.264,7.244,7.244,0,0,1,4.636,1.46,8.423,8.423,0,0,1,2.715,4.169h0.36v-4.967a14.425,14.425,0,0,0-8.011-2.017,11.028,11.028,0,0,0-5.611,1.49,11.212,11.212,0,0,0-4.1,4.034,10.651,10.651,0,0,0-1.516,5.554,11.1,11.1,0,0,0,1.441,5.6,10.6,10.6,0,0,0,4,4,11.379,11.379,0,0,0,5.776,1.475h0Zm24.543-.542,0.48-3.672h-0.39l-0.63,1.2a1.972,1.972,0,0,1-.8.843,2.649,2.649,0,0,1-1.275.271h-6.331V708.2h4.23a1.731,1.731,0,0,1,.93.226,1.877,1.877,0,0,1,.63.738l0.391,0.752h0.36v-4.786H475.3l-0.391.752a1.87,1.87,0,0,1-.63.738,1.731,1.731,0,0,1-.93.226h-4.23v-7.586h5.521a2.336,2.336,0,0,1,1.125.225,1.565,1.565,0,0,1,.645.828l0.39,1.084h0.36V697.9H464.77v0.512l0.75,0.271a1.023,1.023,0,0,1,.72,1.083v17.34a1.329,1.329,0,0,1-.15.677,1.025,1.025,0,0,1-.57.407l-0.75.271v0.511h13.292Z"/>
    <path id="Line_1" data-name="Line 1" class="cls-1" d="M261,733.012V731h219v2.014H261Z"/>
    <path id="EXPLORE_MORE" data-name="EXPLORE MORE" class="cls-1" d="M524.39,718.975l0.48-3.672h-0.39l-0.63,1.2a1.972,1.972,0,0,1-.8.843,2.649,2.649,0,0,1-1.275.271h-6.331V708.2h4.231a1.733,1.733,0,0,1,.93.226,1.877,1.877,0,0,1,.63.738l0.39,0.752h0.36v-4.786h-0.36l-0.39.752a1.87,1.87,0,0,1-.63.738,1.733,1.733,0,0,1-.93.226h-4.231v-7.586h5.521a2.336,2.336,0,0,1,1.125.225,1.56,1.56,0,0,1,.645.828l0.39,1.084h0.36V697.9H511.1v0.512l0.75,0.271a1.023,1.023,0,0,1,.721,1.083v17.34a1.329,1.329,0,0,1-.151.677,1.025,1.025,0,0,1-.57.407l-0.75.271v0.511H524.39Zm19.532-.782a2.789,2.789,0,0,1-1.41-1.2l-6.031-9.543L541.1,700.1a3.343,3.343,0,0,1,1.77-1.476l0.6-.21V697.9h-4.95v0.512l0.54,0.21a0.747,0.747,0,0,1,.375.3,0.821,0.821,0,0,1,.135.451,1.278,1.278,0,0,1-.18.6l-3.781,6.081-3.78-5.991a1.225,1.225,0,0,1-.21-0.662,0.814,0.814,0,0,1,.57-0.783l0.54-.21V697.9H526.52v0.512l0.6,0.21a1.7,1.7,0,0,1,.66.422,5.641,5.641,0,0,1,.66.843l5.221,8.248-5.311,8.429a6.05,6.05,0,0,1-.855,1.1,2.863,2.863,0,0,1-.855.527l-0.66.271v0.511h5.041v-0.511l-0.781-.271a0.682,0.682,0,0,1-.48-0.693,1.223,1.223,0,0,1,.211-0.662l4.59-7.285,4.681,7.375a1.153,1.153,0,0,1,.21.6,0.744,0.744,0,0,1-.54.663l-0.63.271v0.511h6.3v-0.511Zm7.951,0.782v-0.511l-0.78-.271a1.054,1.054,0,0,1-.72-1.084v-8.068a14.007,14.007,0,0,0,3.27.3,7.61,7.61,0,0,0,3.721-.828,5.332,5.332,0,0,0,2.22-2.2,6.464,6.464,0,0,0,.72-3.056,4.517,4.517,0,0,0-.915-2.784,5.913,5.913,0,0,0-2.6-1.9,10.311,10.311,0,0,0-3.871-.677h-6.9v0.512l0.75,0.271a1.023,1.023,0,0,1,.72,1.083v17.34a1.329,1.329,0,0,1-.15.677,1.025,1.025,0,0,1-.57.407l-0.75.271v0.511h5.851Zm1.38-10.987a10.294,10.294,0,0,1-2.88-.392v-8.007a2.866,2.866,0,0,1,.87-0.3,5.813,5.813,0,0,1,1.2-.121,5.323,5.323,0,0,1,3.661,1.174,3.882,3.882,0,0,1,1.32,3.041,4.935,4.935,0,0,1-1.1,3.326,3.829,3.829,0,0,1-3.076,1.28h0Zm22.083,10.987,0.51-3.7h-0.39l-0.63,1.294a1.937,1.937,0,0,1-.765.828,2.589,2.589,0,0,1-1.185.226h-6.211V699.769a1.052,1.052,0,0,1,.72-1.083l0.78-.271V697.9h-5.851v0.512l0.751,0.271a1.052,1.052,0,0,1,.72,1.083v17.34a1.054,1.054,0,0,1-.72,1.084l-0.751.271v0.511h13.022Zm11.642,0.542a11.243,11.243,0,0,0,9.706-5.494,10.993,10.993,0,0,0,0-11.138,11.219,11.219,0,0,0-4.095-4.034,11.31,11.31,0,0,0-11.222,0,11.214,11.214,0,0,0-4.1,4.034,10.993,10.993,0,0,0,0,11.138,11.247,11.247,0,0,0,9.707,5.494h0Zm0.3-1.354a6.863,6.863,0,0,1-4.171-1.37,9.162,9.162,0,0,1-2.91-3.688,12.168,12.168,0,0,1-1.05-5.087,11.409,11.409,0,0,1,.945-4.666,8.192,8.192,0,0,1,2.655-3.387,6.5,6.5,0,0,1,3.931-1.249,6.863,6.863,0,0,1,4.17,1.37,9.157,9.157,0,0,1,2.911,3.7,12.221,12.221,0,0,1,1.05,5.073,11.412,11.412,0,0,1-.945,4.666,8.184,8.184,0,0,1-2.656,3.386,6.488,6.488,0,0,1-3.93,1.25h0Zm18.632,0.812v-0.511l-0.78-.271a1.054,1.054,0,0,1-.72-1.084v-8.038h1.95a3.251,3.251,0,0,1,1.695.362,4.523,4.523,0,0,1,1.276,1.475l3.96,6.592a3.983,3.983,0,0,0,.915,1.144,1.8,1.8,0,0,0,1.125.331h3.211v-0.511a4.705,4.705,0,0,1-1.41-.587,3.364,3.364,0,0,1-.93-1.009l-3.751-5.689a12.47,12.47,0,0,0-1.515-1.972,3.573,3.573,0,0,0-1.515-.8,6.827,6.827,0,0,0,3.435-1.957,4.728,4.728,0,0,0,1.3-3.311,4.527,4.527,0,0,0-1.89-3.823,8.435,8.435,0,0,0-5.161-1.415h-7.051v0.512l0.75,0.271a1.052,1.052,0,0,1,.721,1.083v17.34a1.053,1.053,0,0,1-.721,1.084l-0.75.271v0.511h5.851Zm-1.5-11.258v-8.128a3.556,3.556,0,0,1,.93-0.286,6.431,6.431,0,0,1,1.29-.136,4.918,4.918,0,0,1,3.421,1.114,3.685,3.685,0,0,1,1.23,2.86,5.037,5.037,0,0,1-1.05,3.281,3.623,3.623,0,0,1-2.851,1.295h-2.97Zm28.624,11.258,0.48-3.672h-0.39l-0.63,1.2a1.978,1.978,0,0,1-.8.843,2.656,2.656,0,0,1-1.276.271h-6.331V708.2h4.231a1.731,1.731,0,0,1,.93.226,1.877,1.877,0,0,1,.63.738l0.39,0.752h0.36v-4.786h-0.36l-0.39.752a1.87,1.87,0,0,1-.63.738,1.731,1.731,0,0,1-.93.226h-4.231v-7.586h5.521a2.336,2.336,0,0,1,1.125.225,1.56,1.56,0,0,1,.645.828l0.39,1.084h0.361V697.9H619.742v0.512l0.75,0.271a1.023,1.023,0,0,1,.72,1.083v17.34a1.329,1.329,0,0,1-.15.677,1.025,1.025,0,0,1-.57.407l-0.75.271v0.511h13.292Zm20.672,0.362,7.5-17.641v15.413a1.054,1.054,0,0,1-.72,1.084l-0.78.271v0.511h5.851v-0.511l-0.751-.271a1.025,1.025,0,0,1-.57-0.407,1.329,1.329,0,0,1-.15-0.677v-17.34a1.023,1.023,0,0,1,.72-1.083l0.751-.271V697.9h-4.351l-7.171,16.8-7.081-16.8H642.6v0.512l0.75,0.271a1.024,1.024,0,0,1,.721,1.083v17.37a1.245,1.245,0,0,1-.151.662,1.061,1.061,0,0,1-.57.392l-0.75.3v0.481h4.471v-0.481l-0.78-.3a1.1,1.1,0,0,1-.555-0.407,1.17,1.17,0,0,1-.165-0.647V701.275l7.741,18.062h0.39Zm24.9,0.18a11.247,11.247,0,0,0,9.707-5.494,10.993,10.993,0,0,0,0-11.138,11.23,11.23,0,0,0-4.1-4.034,11.31,11.31,0,0,0-11.222,0,11.219,11.219,0,0,0-4.1,4.034,10.993,10.993,0,0,0,0,11.138,11.243,11.243,0,0,0,9.706,5.494h0Zm0.3-1.354a6.863,6.863,0,0,1-4.17-1.37,9.156,9.156,0,0,1-2.911-3.688,12.183,12.183,0,0,1-1.05-5.087,11.409,11.409,0,0,1,.945-4.666,8.194,8.194,0,0,1,2.656-3.387,6.494,6.494,0,0,1,3.93-1.249,6.868,6.868,0,0,1,4.171,1.37,9.147,9.147,0,0,1,2.91,3.7,12.221,12.221,0,0,1,1.05,5.073,11.412,11.412,0,0,1-.945,4.666,8.182,8.182,0,0,1-2.655,3.386,6.491,6.491,0,0,1-3.931,1.25h0Zm18.633,0.812v-0.511l-0.78-.271a1.053,1.053,0,0,1-.721-1.084v-8.038h1.951a3.253,3.253,0,0,1,1.7.362,4.522,4.522,0,0,1,1.275,1.475l3.961,6.592a3.966,3.966,0,0,0,.915,1.144,1.8,1.8,0,0,0,1.125.331h3.21v-0.511a4.705,4.705,0,0,1-1.41-.587,3.377,3.377,0,0,1-.93-1.009l-3.75-5.689a12.522,12.522,0,0,0-1.516-1.972,3.573,3.573,0,0,0-1.515-.8,6.834,6.834,0,0,0,3.436-1.957,4.728,4.728,0,0,0,1.3-3.311,4.527,4.527,0,0,0-1.89-3.823,8.437,8.437,0,0,0-5.161-1.415h-7.051v0.512l0.75,0.271a1.052,1.052,0,0,1,.72,1.083v17.34a1.054,1.054,0,0,1-.72,1.084l-0.75.271v0.511h5.851Zm-1.5-11.258v-8.128a3.553,3.553,0,0,1,.931-0.286,6.424,6.424,0,0,1,1.29-.136,4.914,4.914,0,0,1,3.42,1.114,3.685,3.685,0,0,1,1.23,2.86,5.037,5.037,0,0,1-1.05,3.281,3.623,3.623,0,0,1-2.85,1.295h-2.971Zm28.624,11.258,0.48-3.672h-0.39l-0.63,1.2a1.972,1.972,0,0,1-.795.843,2.649,2.649,0,0,1-1.275.271h-6.331V708.2h4.23a1.734,1.734,0,0,1,.931.226,1.877,1.877,0,0,1,.63.738l0.39,0.752h0.36v-4.786h-0.36l-0.39.752a1.87,1.87,0,0,1-.63.738,1.734,1.734,0,0,1-.931.226h-4.23v-7.586h5.521a2.336,2.336,0,0,1,1.125.225,1.56,1.56,0,0,1,.645.828l0.39,1.084h0.36V697.9H711.373v0.512l0.75,0.271a1.023,1.023,0,0,1,.72,1.083v17.34a1.329,1.329,0,0,1-.15.677,1.025,1.025,0,0,1-.57.407l-0.75.271v0.511h13.292Z"/>
    <path id="Line_1_copy" data-name="Line 1 copy" class="cls-1" d="M510,733.012V731h216v2.014H510Z"/>
  </g>
  <path id="LEGACY_unveiled" data-name="LEGACY unveiled" class="cls-1" d="M282.586,520.56l1.079-7.488h-0.36l-1.439,2.808a5.076,5.076,0,0,1-1.907,1.98,6.059,6.059,0,0,1-2.771.54H262.145V473.76a2.82,2.82,0,0,1,.36-1.512,3.31,3.31,0,0,1,1.368-1.08l1.511-.648v-0.36H252v0.36l1.512,0.648a3.319,3.319,0,0,1,1.367,1.08,2.82,2.82,0,0,1,.36,1.512v43.2a2.82,2.82,0,0,1-.36,1.512,3.319,3.319,0,0,1-1.367,1.08L252,520.2v0.36h30.589Zm35.409,0,1.08-7.56h-0.36l-1.583,2.88q-1.368,2.52-4.894,2.52h-15.69V494.28H307.2a5.072,5.072,0,0,1,2.339.468,3.161,3.161,0,0,1,1.4,1.62l0.936,2.016h0.36V488.016h-0.36l-0.936,2.016a3.161,3.161,0,0,1-1.4,1.62,5.072,5.072,0,0,1-2.339.468H296.548v-19.8H310.3a5.6,5.6,0,0,1,2.7.54,3.729,3.729,0,0,1,1.548,1.98l0.935,2.376h0.36V470.16H286.4v0.36l1.511,0.648a2.908,2.908,0,0,1,1.368,1.008,2.987,2.987,0,0,1,.36,1.584v43.2a2.987,2.987,0,0,1-.36,1.584,2.908,2.908,0,0,1-1.368,1.008l-1.511.648v0.36H318Zm28.429,1.3q12.092,0,19.216-6.12V502.488A2.977,2.977,0,0,1,366,500.9a2.9,2.9,0,0,1,1.368-1.008l1.511-.648v-0.36H355.492v0.36L357,499.9a2.9,2.9,0,0,1,1.367,1.008,2.977,2.977,0,0,1,.36,1.584V515.52a17.167,17.167,0,0,1-11.875,4.176A16.07,16.07,0,0,1,336.42,516.2a21.646,21.646,0,0,1-6.55-9.288,34.689,34.689,0,0,1-2.231-12.564,28.7,28.7,0,0,1,2.339-11.664,20.165,20.165,0,0,1,6.766-8.5,18.944,18.944,0,0,1,21.843.612,22.057,22.057,0,0,1,6.694,10.764h0.359v-11.52a29.763,29.763,0,0,0-8.564-3.816,39.467,39.467,0,0,0-10.652-1.368,26.5,26.5,0,0,0-13.459,3.564,26.855,26.855,0,0,0-9.824,9.648,25.422,25.422,0,0,0-3.635,13.284,26.523,26.523,0,0,0,3.455,13.392,25.4,25.4,0,0,0,9.608,9.576,27.362,27.362,0,0,0,13.855,3.528h0Zm67.007-2.3a5.749,5.749,0,0,1-3.023-3.168l-19.576-47.232h-0.36l-19.361,47.16a6.039,6.039,0,0,1-3.023,3.24l-1.3.648v0.36h8.852V520.2l-1.439-.576a1.478,1.478,0,0,1-1.008-1.44,2.9,2.9,0,0,1,.216-1.152l4.894-12.024h20.584l4.894,12.024a2.712,2.712,0,0,1,.216,1.08A1.615,1.615,0,0,1,403,519.624l-1.368.576v0.36H414.87V520.2Zm-15.474-16.7H379.172l9.356-22.968Zm41.455,19.008q12.092,0,19.217-6.12v-10.08h-0.36a20.65,20.65,0,0,1-6.441,10.4Q447.4,519.7,439.844,519.7a16.07,16.07,0,0,1-10.436-3.492,21.645,21.645,0,0,1-6.549-9.288,34.667,34.667,0,0,1-2.231-12.564,28.687,28.687,0,0,1,2.339-11.664,20.156,20.156,0,0,1,6.765-8.5,19.041,19.041,0,0,1,21.808.54q4.569,3.708,6.729,10.836h0.36v-11.52a29.757,29.757,0,0,0-8.565-3.816,39.457,39.457,0,0,0-10.652-1.368,26.5,26.5,0,0,0-13.458,3.564,26.858,26.858,0,0,0-9.825,9.648A25.43,25.43,0,0,0,412.5,495.36a26.522,26.522,0,0,0,3.454,13.392,25.4,25.4,0,0,0,9.609,9.576,27.358,27.358,0,0,0,13.854,3.528h0Zm49.661-1.3V520.2l-1.512-.648a2.9,2.9,0,0,1-1.367-1.008,2.968,2.968,0,0,1-.36-1.584V497.088L497.853,475.2q1.872-3.528,3.959-4.176l1.583-.5v-0.36H492.959v0.36l1.728,0.5a1.655,1.655,0,0,1,.935.612,1.777,1.777,0,0,1,.36,1.116,2.931,2.931,0,0,1-.5,1.584l-10.939,19.872-11.372-19.3a3.538,3.538,0,0,1-.576-1.872,1.958,1.958,0,0,1,.432-1.26,2.266,2.266,0,0,1,1.152-.756l1.727-.5v-0.36H460.5v0.36l0.936,0.5a11.554,11.554,0,0,1,4.03,4.032l13.459,22.464v19.44a2.977,2.977,0,0,1-.36,1.584,2.91,2.91,0,0,1-1.367,1.008l-1.512.648v0.36h13.387Zm39.511,1.008q7.125,0,12.091-9.432L538.66,520.2l0.216,0.36h8.781l0.144-.36-0.936-.432a1.855,1.855,0,0,1-1.08-1.944,6.065,6.065,0,0,1,.144-1.08l7.27-29.52-9.5,1.728-0.144.36,0.936,0.432a3.048,3.048,0,0,1,1.008.72,1.345,1.345,0,0,1,.287.864l-0.144.864-4.174,16.848a29.185,29.185,0,0,1-5.11,6.7,7.415,7.415,0,0,1-4.894,2.3,3.791,3.791,0,0,1-2.987-1.26,5.085,5.085,0,0,1-1.115-3.492,13.368,13.368,0,0,1,.359-2.736l5.758-23.328-9.5,1.728-0.144.36,0.936,0.432a3.031,3.031,0,0,1,1.007.72,1.346,1.346,0,0,1,.288.864l-0.144.864-4.606,18.576a11.739,11.739,0,0,0-.432,3.1,7.517,7.517,0,0,0,2.123,5.616,7.616,7.616,0,0,0,5.578,2.088h0ZM585.01,498.96a16.444,16.444,0,0,0,.576-4.392,7.986,7.986,0,0,0-1.907-5.652,7.345,7.345,0,0,0-5.65-2.052,11.067,11.067,0,0,0-7.2,2.736,21.6,21.6,0,0,0-5.47,6.984l2.375-9.36-9.572,1.728-0.072.36,0.863,0.432a2,2,0,0,1,1.3,1.584l-0.144.864-6.19,24.7a4.361,4.361,0,0,1-.756,1.728,3.636,3.636,0,0,1-1.691,1.152l-1.08.432-0.072.36H562.2l0.072-.36-0.936-.432a1.894,1.894,0,0,1-1.151-1.8,5.972,5.972,0,0,1,.144-1.08l3.886-15.552q5.4-10.44,10.724-10.44a4.258,4.258,0,0,1,3.2,1.224,4.556,4.556,0,0,1,1.187,3.312,9.856,9.856,0,0,1-.288,1.872l-4.966,20.088a2.526,2.526,0,0,0-.072.72,2.357,2.357,0,0,0,.72,1.728,2.44,2.44,0,0,0,1.8.72H583l0.072-.36-1.08-.432a2.175,2.175,0,0,1-1.511-2.088,6.346,6.346,0,0,1,.216-1.512Zm27.134-11.088-0.072.36,0.5,0.288a1.074,1.074,0,0,1,.575.936,2.9,2.9,0,0,1-.431,1.3L600.988,510.7,598.9,490.824a2.157,2.157,0,0,1,1.367-2.3l0.576-.288,0.072-.36H590.48l-0.072.36,0.576,0.36a3.558,3.558,0,0,1,1.08.936,2.616,2.616,0,0,1,.432,1.3l3.886,30.6h0.36l20.08-30.816a2.026,2.026,0,0,0,.288-1.008,1.67,1.67,0,0,0-.5-1.224,1.754,1.754,0,0,0-1.295-.5h-3.167ZM630.423,503.5a18.074,18.074,0,0,0,7.7-1.512,12.36,12.36,0,0,0,4.93-3.852,8.1,8.1,0,0,0,1.691-4.788,5.556,5.556,0,0,0-2.411-4.716,10.545,10.545,0,0,0-6.37-1.764,16.915,16.915,0,0,0-9.716,3.1,22.415,22.415,0,0,0-7.233,8.208,22.814,22.814,0,0,0-2.7,10.8q0,5.976,2.879,9.288t8.2,3.312q8.636,0,13.458-10.008l-0.36-.216q-4.175,5.976-9.644,5.976a6.636,6.636,0,0,1-5.757-2.7,12.551,12.551,0,0,1-1.944-7.452,20.53,20.53,0,0,1,.5-4.536,29.685,29.685,0,0,0,6.765.864h0Zm4.823-14.688a3.055,3.055,0,0,1,2.555,1.152,4.779,4.779,0,0,1,.9,3.024,7.836,7.836,0,0,1-1.043,3.78,8.361,8.361,0,0,1-3.167,3.168,10.218,10.218,0,0,1-5.29,1.26,16.976,16.976,0,0,1-4.966-.792,21.37,21.37,0,0,1,4.39-8.244,8.7,8.7,0,0,1,6.622-3.348h0Zm23.534-7.848a4.179,4.179,0,1,0-2.951-1.224,4.02,4.02,0,0,0,2.951,1.224h0Zm-5.182,39.6,0.143-.36-0.719-.432a2.407,2.407,0,0,1-1.224-2.232,8.685,8.685,0,0,1,.288-2.088l6.981-28.224-9.5,1.728v0.36l0.864,0.432a1.733,1.733,0,0,1,1.223,1.512,6.321,6.321,0,0,1-.144.936l-6.261,25.2a2.49,2.49,0,0,0-.072.72,2.353,2.353,0,0,0,.72,1.728,2.438,2.438,0,0,0,1.8.72h5.9Zm14.466,0,0.144-.36-0.72-.432a2.407,2.407,0,0,1-1.224-2.232,8.685,8.685,0,0,1,.288-2.088L678.356,468l-9.5,1.728-0.072.36,0.936,0.432a1.766,1.766,0,0,1,1.223,1.584l-0.143.864-11.084,44.424a2.526,2.526,0,0,0-.072.72,2.353,2.353,0,0,0,.72,1.728,2.438,2.438,0,0,0,1.8.72h5.9ZM689.079,503.5a18.069,18.069,0,0,0,7.7-1.512,12.36,12.36,0,0,0,4.93-3.852,8.1,8.1,0,0,0,1.691-4.788,5.556,5.556,0,0,0-2.411-4.716,10.544,10.544,0,0,0-6.369-1.764,16.916,16.916,0,0,0-9.717,3.1,22.415,22.415,0,0,0-7.233,8.208,22.814,22.814,0,0,0-2.7,10.8q0,5.976,2.879,9.288t8.205,3.312q8.637,0,13.459-10.008l-0.36-.216q-4.176,5.976-9.644,5.976a6.636,6.636,0,0,1-5.758-2.7,12.551,12.551,0,0,1-1.944-7.452,20.53,20.53,0,0,1,.5-4.536,29.686,29.686,0,0,0,6.766.864h0Zm4.822-14.688a3.055,3.055,0,0,1,2.555,1.152,4.779,4.779,0,0,1,.9,3.024,7.836,7.836,0,0,1-1.043,3.78,8.361,8.361,0,0,1-3.167,3.168,10.218,10.218,0,0,1-5.29,1.26,16.976,16.976,0,0,1-4.966-.792,21.37,21.37,0,0,1,4.39-8.244,8.7,8.7,0,0,1,6.622-3.348h0Zm20.655,32.76q6.4,0,9.788-6.48l-1.511,6.12,9.428-1.728,0.144-.36-0.936-.432a1.937,1.937,0,0,1-1.079-1.944,5.972,5.972,0,0,1,.144-1.08L742.409,468l-9.428,1.728-0.072.36,0.864,0.432a2.853,2.853,0,0,1,.935.756,1.5,1.5,0,0,1,.288.9l-0.144.864-3.958,15.768a13.249,13.249,0,0,0-7.2-1.944,16.437,16.437,0,0,0-10.112,3.312,22.141,22.141,0,0,0-6.873,8.6,25.711,25.711,0,0,0-2.447,10.908q0,5.472,2.879,8.676a9.509,9.509,0,0,0,7.413,3.2h0Zm3.023-3.816a5.3,5.3,0,0,1-4.426-2.088q-1.62-2.088-1.62-6.408a28.981,28.981,0,0,1,1.692-9.792,22.026,22.026,0,0,1,4.426-7.7q2.735-2.952,5.686-2.952a8.1,8.1,0,0,1,3.886,1.008,7.229,7.229,0,0,1,2.807,2.52L725.352,511.2a16.719,16.719,0,0,1-3.743,4.86,6.285,6.285,0,0,1-4.03,1.692h0Z"/>
</svg>
