<svg id="_04_MODULE_tailoring_copy" data-name="04 MODULE tailoring copy" xmlns="http://www.w3.org/2000/svg" width="1920" height="1156" viewBox="0 0 1920 1156">
  <defs>
    <style>
      .cls-1 {
        fill: #fff;
        fill-rule: evenodd;
      }
    </style>
  </defs>
  <g id="TXT">
    <g>
      <path id="Step_into_imagined_worlds_with_styles_designed_to_excite." data-name="Step into imagined worlds with styles designed to excite." class="cls-1" d="M1208.43,602.252v2.974a8.89,8.89,0,0,0,5.59,2.024c3.17,0,6.07-1.849,6.07-5.273,0-3.1-2.35-4.123-4.82-4.873l-1.23-.35c-1.84-.575-3.32-1.1-3.32-2.749,0-1.724,1.68-2.549,3.55-2.549a8.549,8.549,0,0,1,4.64,1.45v-2.674a8.726,8.726,0,0,0-4.74-1.35c-3.17,0-6.09,1.7-6.09,5.2,0,3.249,2.57,4.348,4.94,5.048l1.6,0.475c1.55,0.475,2.8,1.05,2.8,2.574,0,1.724-1.6,2.5-3.38,2.5A8.233,8.233,0,0,1,1208.43,602.252Zm24.53-8.122h-5.05v-3.948h-2.55v3.948h-2.99v2.249h2.99v5.848a4.488,4.488,0,0,0,4.73,4.773,6.9,6.9,0,0,0,3.17-.825v-2.3a5.018,5.018,0,0,1-2.65.85,2.513,2.513,0,0,1-2.7-2.724v-5.623h5.05V594.13Zm14.34,7.1v-1.1c0-3.849-2-6.223-5.47-6.223-3.9,0-6.2,2.949-6.2,6.6,0,3.9,2.58,6.5,6.65,6.5a8.236,8.236,0,0,0,4.64-1.35v-2.374a7.552,7.552,0,0,1-4.52,1.525c-2.54,0-4.04-1.325-4.29-3.574h9.19Zm-9.14-1.924a3.39,3.39,0,0,1,3.49-3.174,2.917,2.917,0,0,1,3.13,3.174h-6.62Zm19.38-5.4a4.9,4.9,0,0,0-3.99,1.75V594.13h-2.5v17.443h2.55V605.2a4.9,4.9,0,0,0,3.82,1.574c4.12,0,6.17-3.3,6.17-6.547C1263.59,597.054,1261.57,593.905,1257.54,593.905Zm-3.94,8.8v-4.748a4.2,4.2,0,0,1,3.57-1.75,3.779,3.779,0,0,1,3.87,4.074c0,2.1-1.2,4.2-3.87,4.2A4.264,4.264,0,0,1,1253.6,602.7Zm21.96-10.7a1.707,1.707,0,0,0,1.82-1.724,1.69,1.69,0,0,0-1.82-1.724A1.725,1.725,0,1,0,1275.56,592.006Zm-1.22,14.769h2.54V594.13h-2.54v12.645Zm7.12-12.645v12.645h2.55V598a4.2,4.2,0,0,1,3.37-1.75,2.779,2.779,0,0,1,2.92,3.024v7.5h2.55v-8.122a4.625,4.625,0,0,0-4.92-4.748,5.189,5.189,0,0,0-3.97,1.725v-1.5h-2.5Zm24.88,0h-5.04v-3.948h-2.55v3.948h-3v2.249h3v5.848a4.48,4.48,0,0,0,4.72,4.773,6.9,6.9,0,0,0,3.17-.825v-2.3a5.018,5.018,0,0,1-2.65.85A2.506,2.506,0,0,1,1301.3,602v-5.623h5.04V594.13Zm9.02-.225a6.55,6.55,0,1,0,6.37,6.573A6.16,6.16,0,0,0,1315.36,593.905Zm-3.79,6.523c0-2.524,1.44-4.174,3.79-4.174,2.37,0,3.82,1.675,3.82,4.2,0,2.549-1.45,4.173-3.82,4.173C1313.01,604.626,1311.57,602.977,1311.57,600.428Zm22.13-8.422a1.727,1.727,0,1,0,0-3.448A1.725,1.725,0,1,0,1333.7,592.006Zm-1.22,14.769h2.55V594.13h-2.55v12.645Zm7.12-12.645v12.645h2.55v-8.846a3.636,3.636,0,0,1,2.99-1.675,2.712,2.712,0,0,1,2.78,3.024v7.5h2.54v-8.846a3.721,3.721,0,0,1,3-1.675,2.731,2.731,0,0,1,2.8,3.024v7.5h2.55v-7.922a4.689,4.689,0,0,0-4.92-4.948,5.515,5.515,0,0,0-4.3,2.024,4.453,4.453,0,0,0-3.97-2.024,3.994,3.994,0,0,0-3.52,1.625v-1.4h-2.5Zm33.13,12.645v-8.646c0-2.649-1.75-4.224-4.85-4.224a7.414,7.414,0,0,0-4.64,1.5v2.424a7.087,7.087,0,0,1,4.44-1.7c1.6,0,2.52.625,2.52,1.675,0,1-.87,1.274-1.79,1.5l-1.7.4c-1.63.375-4.27,1.024-4.27,3.873,0,2.274,1.62,3.424,3.82,3.424a4.5,4.5,0,0,0,3.99-2.124v1.9h2.48Zm-7.77-3.349c0-1.349,1.17-1.7,2.35-2l1.1-.275a8.486,8.486,0,0,0,1.79-.624v1.149a3.27,3.27,0,0,1-3.39,3.249C1365.73,604.926,1364.96,604.476,1364.96,603.426Zm24.31-9.3h-6.82c-3.92,0-5.65,2.374-5.65,4.823a4.24,4.24,0,0,0,2.23,3.824,1.85,1.85,0,0,0-1.65,1.8,2.014,2.014,0,0,0,1.8,1.874c-2.03.375-3.05,1.449-3.05,2.974,0,2.449,2.62,3.373,5.82,3.373,3.37,0,6.37-1.074,6.37-3.848,0-2.874-3.12-3.324-5-3.4l-1.77-.074c-0.63-.025-1.87-0.1-1.87-0.975,0-.775,1.02-0.9,2.12-1.05,3.37-.424,5.39-1.874,5.39-4.5a2.889,2.889,0,0,0-1.32-2.574h3.4V594.13Zm-10.77,15.094c0-1.4,1.7-1.649,3.6-1.649,2.72,0,3.79.474,3.79,1.549,0,1.374-1.77,1.724-3.92,1.724C1380.03,610.848,1378.5,610.573,1378.5,609.224Zm0.7-10.271a2.821,2.821,0,1,1,2.8,2.574A2.582,2.582,0,0,1,1379.2,598.953Zm14.14-6.947a1.727,1.727,0,1,0,0-3.448A1.725,1.725,0,1,0,1393.34,592.006Zm-1.22,14.769h2.55V594.13h-2.55v12.645Zm7.12-12.645v12.645h2.55V598a4.211,4.211,0,0,1,3.37-1.75,2.779,2.779,0,0,1,2.92,3.024v7.5h2.55v-8.122a4.62,4.62,0,0,0-4.92-4.748,5.2,5.2,0,0,0-3.97,1.725v-1.5h-2.5Zm26.71,7.1v-1.1c0-3.849-2-6.223-5.47-6.223-3.9,0-6.2,2.949-6.2,6.6,0,3.9,2.58,6.5,6.65,6.5a8.259,8.259,0,0,0,4.64-1.35v-2.374a7.574,7.574,0,0,1-4.52,1.525c-2.55,0-4.05-1.325-4.29-3.574h9.19Zm-9.14-1.924a3.384,3.384,0,0,1,3.49-3.174,2.914,2.914,0,0,1,3.12,3.174h-6.61Zm24.55-10.3h-2.55v6.5a4.925,4.925,0,0,0-3.87-1.6c-3.54,0-6.12,2.724-6.12,6.523s2.58,6.572,6.1,6.572a4.89,4.89,0,0,0,3.94-1.774v1.549h2.5V589.007Zm-9.99,11.421c0-2.449,1.4-4.224,3.92-4.224a4.176,4.176,0,0,1,3.52,1.75v4.973a4.23,4.23,0,0,1-3.54,1.774C1432.75,604.7,1431.37,602.877,1431.37,600.428Zm37.15-6.3-3.17,9.2-2.85-9.2h-2.12l-2.85,9.2-3.17-9.2h-2.75l4.75,12.645h2.22l2.87-8.422,2.87,8.422h2.23l4.74-12.645h-2.77Zm11.02-.225a6.55,6.55,0,1,0,6.37,6.573A6.16,6.16,0,0,0,1479.54,593.905Zm-3.79,6.523c0-2.524,1.45-4.174,3.79-4.174,2.38,0,3.82,1.675,3.82,4.2,0,2.549-1.44,4.173-3.82,4.173C1477.2,604.626,1475.75,602.977,1475.75,600.428Zm13.94-6.3v12.645h2.55v-8.646a3.746,3.746,0,0,1,3.34-1.775,5.866,5.866,0,0,1,1.6.25v-2.349a6.345,6.345,0,0,0-1.52-.2,3.88,3.88,0,0,0-3.47,1.775v-1.7h-2.5Zm13.22,12.645V589.007h-2.53v17.768h2.53Zm16.31-17.768h-2.55v6.5a4.952,4.952,0,0,0-3.87-1.6c-3.55,0-6.12,2.724-6.12,6.523s2.57,6.572,6.09,6.572a4.9,4.9,0,0,0,3.95-1.774v1.549h2.5V589.007Zm-9.99,11.421c0-2.449,1.4-4.224,3.92-4.224a4.176,4.176,0,0,1,3.52,1.75v4.973a4.249,4.249,0,0,1-3.55,1.774C1510.6,604.7,1509.23,602.877,1509.23,600.428Zm13.89,2.748V605.6a8.74,8.74,0,0,0,4.85,1.4c2.82,0,4.97-1.375,4.97-3.849,0-2.7-2.58-3.273-3.78-3.548l-1.44-.325c-1.18-.275-2.1-0.55-2.1-1.549,0-1.125,1.12-1.65,2.55-1.65a7.091,7.091,0,0,1,3.72,1.1v-2.324a7.76,7.76,0,0,0-3.82-.95c-2.78,0-4.95,1.15-4.95,3.849,0,2.624,2,3.248,4.02,3.723l1.25,0.275c1,0.25,2,.55,2,1.524,0,0.95-.93,1.525-2.52,1.525A8.048,8.048,0,0,1,1523.12,603.176Zm35.6-9.046-3.17,9.2-2.85-9.2h-2.12l-2.85,9.2-3.17-9.2h-2.75l4.75,12.645h2.22l2.87-8.422,2.87,8.422h2.23l4.74-12.645h-2.77Zm7-2.124a1.707,1.707,0,0,0,1.82-1.724,1.69,1.69,0,0,0-1.82-1.724A1.725,1.725,0,1,0,1565.72,592.006Zm-1.22,14.769h2.54V594.13h-2.54v12.645Zm16.08-12.645h-5.04v-3.948h-2.55v3.948h-3v2.249h3v5.848a4.48,4.48,0,0,0,4.72,4.773,6.874,6.874,0,0,0,3.17-.825v-2.3a4.986,4.986,0,0,1-2.64.85,2.509,2.509,0,0,1-2.7-2.724v-5.623h5.04V594.13Zm3.56-5.123v17.768h2.54V598a4.225,4.225,0,0,1,3.37-1.75,2.782,2.782,0,0,1,2.93,3.024v7.5h2.54v-8.122a4.62,4.62,0,0,0-4.92-4.748,5.29,5.29,0,0,0-3.92,1.675v-6.573h-2.54Zm22.18,14.169V605.6a8.764,8.764,0,0,0,4.85,1.4c2.82,0,4.97-1.375,4.97-3.849,0-2.7-2.57-3.273-3.77-3.548l-1.45-.325c-1.18-.275-2.1-0.55-2.1-1.549,0-1.125,1.12-1.65,2.55-1.65a7.065,7.065,0,0,1,3.72,1.1v-2.324a7.733,7.733,0,0,0-3.82-.95c-2.77,0-4.95,1.15-4.95,3.849,0,2.624,2,3.248,4.02,3.723l1.25,0.275c1,0.25,2,.55,2,1.524,0,0.95-.92,1.525-2.52,1.525A8.07,8.07,0,0,1,1606.32,603.176Zm22.54-9.046h-5.05v-3.948h-2.55v3.948h-2.99v2.249h2.99v5.848a4.485,4.485,0,0,0,4.72,4.773,6.912,6.912,0,0,0,3.18-.825v-2.3a5.018,5.018,0,0,1-2.65.85,2.509,2.509,0,0,1-2.7-2.724v-5.623h5.05V594.13Zm11.96,0-3.69,9.371-3.67-9.371h-2.78l5.17,12.42-0.37,1a2.8,2.8,0,0,1-2.75,1.849,5.4,5.4,0,0,1-2-.45v2.2a6.092,6.092,0,0,0,2.25.425c2.3,0,3.9-1.3,4.95-3.848l5.62-13.6h-2.73Zm8.28,12.645V589.007h-2.53v17.768h2.53Zm15.43-5.548v-1.1c0-3.849-1.99-6.223-5.47-6.223-3.89,0-6.19,2.949-6.19,6.6,0,3.9,2.57,6.5,6.64,6.5a8.268,8.268,0,0,0,4.65-1.35v-2.374a7.574,7.574,0,0,1-4.52,1.525c-2.55,0-4.05-1.325-4.3-3.574h9.19Zm-9.14-1.924a3.4,3.4,0,0,1,3.5-3.174,2.914,2.914,0,0,1,3.12,3.174h-6.62Zm12.17,3.873V605.6a8.764,8.764,0,0,0,4.85,1.4c2.82,0,4.97-1.375,4.97-3.849,0-2.7-2.58-3.273-3.77-3.548l-1.45-.325c-1.18-.275-2.1-0.55-2.1-1.549,0-1.125,1.12-1.65,2.55-1.65a7.091,7.091,0,0,1,3.72,1.1v-2.324a7.733,7.733,0,0,0-3.82-.95c-2.78,0-4.95,1.15-4.95,3.849,0,2.624,2,3.248,4.02,3.723l1.25,0.275c1,0.25,2,.55,2,1.524,0,0.95-.92,1.525-2.52,1.525A8.07,8.07,0,0,1,1667.56,603.176Zm-329.21,22.831h-2.55v6.5a4.925,4.925,0,0,0-3.87-1.6c-3.54,0-6.12,2.724-6.12,6.523s2.58,6.572,6.1,6.572a4.89,4.89,0,0,0,3.94-1.774v1.549h2.5V626.007Zm-9.99,11.421c0-2.449,1.4-4.224,3.92-4.224a4.176,4.176,0,0,1,3.52,1.75v4.973a4.23,4.23,0,0,1-3.54,1.774C1329.74,641.7,1328.36,639.877,1328.36,637.428Zm25.41,0.8v-1.1c0-3.849-2-6.223-5.47-6.223-3.9,0-6.2,2.949-6.2,6.6,0,3.9,2.58,6.5,6.65,6.5a8.236,8.236,0,0,0,4.64-1.35v-2.374a7.552,7.552,0,0,1-4.52,1.525c-2.54,0-4.04-1.325-4.29-3.574h9.19Zm-9.14-1.924a3.39,3.39,0,0,1,3.49-3.174,2.917,2.917,0,0,1,3.13,3.174h-6.62Zm12.17,3.873V642.6a8.73,8.73,0,0,0,4.84,1.4c2.82,0,4.97-1.375,4.97-3.849,0-2.7-2.57-3.273-3.77-3.548l-1.45-.325c-1.17-.275-2.1-0.55-2.1-1.549,0-1.125,1.13-1.65,2.55-1.65a7.065,7.065,0,0,1,3.72,1.1v-2.324a7.733,7.733,0,0,0-3.82-.95c-2.77,0-4.94,1.15-4.94,3.849,0,2.624,1.99,3.248,4.02,3.723l1.25,0.275c0.99,0.25,1.99.55,1.99,1.524,0,0.95-.92,1.525-2.52,1.525A8.042,8.042,0,0,1,1356.8,640.176Zm14.76-11.17a1.727,1.727,0,1,0,0-3.448A1.725,1.725,0,1,0,1371.56,629.006Zm-1.22,14.769h2.55V631.13h-2.55v12.645Zm19.13-12.645h-6.82c-3.92,0-5.64,2.374-5.64,4.823a4.231,4.231,0,0,0,2.22,3.824,1.859,1.859,0,0,0-1.65,1.8,2.014,2.014,0,0,0,1.8,1.874c-2.02.375-3.05,1.449-3.05,2.974,0,2.449,2.63,3.373,5.82,3.373,3.38,0,6.37-1.074,6.37-3.848,0-2.874-3.12-3.324-4.99-3.4l-1.78-.075c-0.62-.025-1.87-0.1-1.87-0.974,0-.775,1.03-0.9,2.12-1.05,3.38-.424,5.4-1.874,5.4-4.5a2.889,2.889,0,0,0-1.32-2.574h3.39V631.13Zm-10.76,15.094c0-1.4,1.7-1.649,3.59-1.649,2.73,0,3.8.474,3.8,1.549,0,1.374-1.77,1.724-3.92,1.724C1380.23,647.848,1378.71,647.573,1378.71,646.224Zm0.7-10.271a2.579,2.579,0,0,1,2.79-2.624,2.608,2.608,0,0,1,2.83,2.624A2.821,2.821,0,0,1,1379.41,635.953Zm12.94-4.823v12.645h2.55V635a4.211,4.211,0,0,1,3.37-1.75,2.779,2.779,0,0,1,2.92,3.024v7.5h2.55v-8.122a4.62,4.62,0,0,0-4.92-4.748,5.2,5.2,0,0,0-3.97,1.725v-1.5h-2.5Zm26.71,7.1v-1.1c0-3.849-2-6.223-5.47-6.223-3.9,0-6.2,2.949-6.2,6.6,0,3.9,2.57,6.5,6.65,6.5a8.259,8.259,0,0,0,4.64-1.35v-2.374a7.574,7.574,0,0,1-4.52,1.525c-2.55,0-4.05-1.325-4.3-3.574h9.2Zm-9.15-1.924a3.4,3.4,0,0,1,3.5-3.174,2.914,2.914,0,0,1,3.12,3.174h-6.62Zm24.56-10.3h-2.55v6.5a4.938,4.938,0,0,0-3.87-1.6c-3.54,0-6.12,2.724-6.12,6.523s2.58,6.572,6.1,6.572a4.89,4.89,0,0,0,3.94-1.774v1.549h2.5V626.007Zm-9.99,11.421c0-2.449,1.4-4.224,3.92-4.224a4.176,4.176,0,0,1,3.52,1.75v4.973a4.23,4.23,0,0,1-3.54,1.774C1425.85,641.7,1424.48,639.877,1424.48,637.428Zm30.83-6.3h-5.04v-3.948h-2.55v3.948h-3v2.249h3v5.848a4.48,4.48,0,0,0,4.72,4.773,6.9,6.9,0,0,0,3.17-.825v-2.3a5.018,5.018,0,0,1-2.65.85,2.506,2.506,0,0,1-2.69-2.724v-5.623h5.04V631.13Zm9.02-.225a6.55,6.55,0,1,0,6.37,6.573A6.16,6.16,0,0,0,1464.33,630.905Zm-3.79,6.523c0-2.524,1.44-4.174,3.79-4.174,2.37,0,3.82,1.675,3.82,4.2,0,2.549-1.45,4.173-3.82,4.173C1461.98,641.626,1460.54,639.977,1460.54,637.428Zm31.47,0.8v-1.1c0-3.849-1.99-6.223-5.47-6.223-3.89,0-6.19,2.949-6.19,6.6,0,3.9,2.57,6.5,6.64,6.5a8.268,8.268,0,0,0,4.65-1.35v-2.374a7.574,7.574,0,0,1-4.52,1.525c-2.55,0-4.05-1.325-4.3-3.574h9.19Zm-9.14-1.924a3.4,3.4,0,0,1,3.5-3.174,2.914,2.914,0,0,1,3.12,3.174h-6.62Zm23.76-5.173h-3.1l-3.07,4.2-3.12-4.2h-3.05l4.7,6.148-4.97,6.5h3.09l3.35-4.548,3.32,4.548h3.1l-4.95-6.5Zm8.72,2.124a6.544,6.544,0,0,1,3.57,1.175v-2.374a6.552,6.552,0,0,0-10.26,5.423,6.213,6.213,0,0,0,6.47,6.522,6.629,6.629,0,0,0,3.79-1.125v-2.424a6.2,6.2,0,0,1-3.59,1.175,3.864,3.864,0,0,1-4.15-4.123A3.967,3.967,0,0,1,1515.35,633.254Zm8.52-4.248a1.727,1.727,0,1,0,0-3.448A1.725,1.725,0,1,0,1523.87,629.006Zm-1.22,14.769h2.55V631.13h-2.55v12.645Zm16.09-12.645h-5.05v-3.948h-2.54v3.948h-3v2.249h3v5.848a4.48,4.48,0,0,0,4.72,4.773,6.9,6.9,0,0,0,3.17-.825v-2.3a5.018,5.018,0,0,1-2.65.85,2.513,2.513,0,0,1-2.7-2.724v-5.623h5.05V631.13Zm14.34,7.1v-1.1c0-3.849-2-6.223-5.47-6.223-3.9,0-6.19,2.949-6.19,6.6,0,3.9,2.57,6.5,6.64,6.5a8.236,8.236,0,0,0,4.64-1.35v-2.374a7.552,7.552,0,0,1-4.52,1.525c-2.54,0-4.04-1.325-4.29-3.574h9.19Zm-9.14-1.924a3.39,3.39,0,0,1,3.49-3.174,2.917,2.917,0,0,1,3.13,3.174h-6.62Zm13.79,4.2a1.725,1.725,0,1,0,1.77,1.725A1.637,1.637,0,0,0,1557.73,640.5Z"/>
      <g>
        <g id="CTAS_copy" data-name="CTAS copy">
          <g id="cta_tailoring" data-name="cta tailoring">
            <path id="Shop_The_Work_of_Art" data-name="Shop The Work of Art" class="cls-1" d="M1275.99,729.517a6.593,6.593,0,0,0,6.83-6.5c0-3.4-2.51-5.112-5.33-6.406-2.88-1.353-4.32-2.676-4.32-4.782a3.02,3.02,0,0,1,3.21-3.128c1.92,0,3.81.933,4.79,3.76h0.39v-4.09a11.9,11.9,0,0,0-5.12-.993c-3.39,0-5.91,2.105-5.91,5.053s1.83,4.872,4.89,6.376c3.33,1.594,4.68,3.068,4.68,5.233,0,2.526-1.53,4.12-3.84,4.12-3.33,0-4.68-2.135-5.64-5.594h-0.39v5.083A9.518,9.518,0,0,0,1275.99,729.517Zm14.37-.542v-0.511l-0.78-.271a1.029,1.029,0,0,1-.72-1.082v-9.234h10.73v9.234a1,1,0,0,1-.72,1.082l-0.75.271v0.511h5.85v-0.511l-0.78-.271a1.029,1.029,0,0,1-.72-1.082V709.787a1.057,1.057,0,0,1,.75-1.113l0.75-.24v-0.512h-5.85v0.512l0.75,0.27a0.981,0.981,0,0,1,.72,1.083v6.737h-10.73v-6.737a1.01,1.01,0,0,1,.72-1.083l0.78-.27v-0.512h-5.84v0.512l0.74,0.27a0.981,0.981,0,0,1,.72,1.083v17.324a1,1,0,0,1-.72,1.082l-0.74.271v0.511h5.84Zm26.64,0.542a11.069,11.069,0,1,0-11.21-11.068A11.12,11.12,0,0,0,1317,729.517Zm0.3-1.354c-4.74,0-8.12-4.571-8.12-10.135,0-5.053,2.99-9.294,7.52-9.294,4.71,0,8.12,4.6,8.12,10.136C1324.82,723.923,1321.83,728.163,1317.3,728.163Zm18.64,0.812v-0.511l-0.78-.271a1.029,1.029,0,0,1-.72-1.082V719.05a15.3,15.3,0,0,0,3.27.3c4.61,0,6.65-2.857,6.65-6.075,0-3.158-2.94-5.354-7.37-5.354h-6.9v0.512l0.75,0.27a0.981,0.981,0,0,1,.72,1.083v17.324a1,1,0,0,1-.72,1.082l-0.75.271v0.511h5.85ZM1337.32,718a10.268,10.268,0,0,1-2.88-.391v-8a4.756,4.756,0,0,1,2.07-.421c3.2,0,4.97,1.774,4.97,4.21C1341.48,716.013,1340.04,718,1337.32,718Zm27.09,10.977v-0.511l-0.78-.271a1.029,1.029,0,0,1-.72-1.082V709.276h4.55a1.7,1.7,0,0,1,1.71,1.474l0.33,1.052h0.36v-3.88h-16.78v3.88h0.38l0.33-1.052a1.7,1.7,0,0,1,1.71-1.474h4.53v17.835a1,1,0,0,1-.72,1.082l-0.75.271v0.511h5.85Zm12.72,0v-0.511l-0.78-.271a1.029,1.029,0,0,1-.72-1.082v-9.234h10.74v9.234a1,1,0,0,1-.72,1.082l-0.75.271v0.511h5.84v-0.511l-0.78-.271a1.029,1.029,0,0,1-.72-1.082V709.787a1.057,1.057,0,0,1,.75-1.113l0.75-.24v-0.512h-5.84v0.512l0.75,0.27a0.981,0.981,0,0,1,.72,1.083v6.737h-10.74v-6.737a1.01,1.01,0,0,1,.72-1.083l0.78-.27v-0.512h-5.84v0.512l0.75,0.27a0.981,0.981,0,0,1,.72,1.083v17.324a1,1,0,0,1-.72,1.082l-0.75.271v0.511h5.84Zm28.74,0,0.48-3.669h-0.39l-0.63,1.2a2.045,2.045,0,0,1-2.07,1.113h-6.32v-9.414h4.22a1.576,1.576,0,0,1,1.56.963l0.39,0.752h0.36v-4.782h-0.36l-0.39.751a1.576,1.576,0,0,1-1.56.963h-4.22v-7.579h5.51a1.594,1.594,0,0,1,1.77,1.052l0.39,1.083h0.36v-3.489h-12.38v0.512l0.75,0.27a0.981,0.981,0,0,1,.72,1.083v17.324a1,1,0,0,1-.72,1.082l-0.75.271v0.511h13.28Zm32.96-20.541,0.69,0.27a0.792,0.792,0,0,1,.33,1.083l-4.73,13.895-4.38-13.895a0.826,0.826,0,0,1,.51-1.083l0.6-.27v-0.512h-5.76v0.512l0.51,0.21a2.4,2.4,0,0,1,1.14,1.414l0.36,1.052-4.25,12.392-4.41-13.715a0.79,0.79,0,0,1,.3-1.083l0.6-.27v-0.512h-5.46v0.512l0.39,0.27a2.869,2.869,0,0,1,1.17,1.354l6.6,19.338h0.6l5.3-15.729,5.31,15.729h0.6l6.62-19.338a2.237,2.237,0,0,1,1.05-1.354l0.63-.27v-0.512h-4.32v0.512Zm15.32,21.083a11.069,11.069,0,1,0-11.21-11.068A11.12,11.12,0,0,0,1454.15,729.517Zm0.3-1.354c-4.74,0-8.13-4.571-8.13-10.135,0-5.053,3-9.294,7.53-9.294,4.7,0,8.12,4.6,8.12,10.136C1461.97,723.923,1458.97,728.163,1454.45,728.163Zm18.64,0.812v-0.511l-0.78-.271a1.029,1.029,0,0,1-.72-1.082v-8.03h1.94c1.5,0,2.07.36,2.97,1.834l3.96,6.587c0.63,1.052,1.08,1.473,2.04,1.473h3.21v-0.511a3.544,3.544,0,0,1-2.34-1.594l-3.75-5.684c-1.23-1.835-1.68-2.376-3.03-2.767,2.79-.722,4.74-2.707,4.74-5.263,0-3.219-2.7-5.234-7.05-5.234h-7.04v0.512l0.75,0.27a1.03,1.03,0,0,1,.72,1.083v17.324a1.029,1.029,0,0,1-.72,1.082l-0.75.271v0.511h5.85Zm-1.5-19.368a5.54,5.54,0,0,1,2.21-.421c3,0,4.65,1.744,4.65,3.97a4.976,4.976,0,0,1-1.05,3.278,3.665,3.665,0,0,1-2.85,1.293h-2.96v-8.12Zm21.18,19.368v-0.511l-0.78-.271a1.029,1.029,0,0,1-.72-1.082v-8.662l8.09,8.572c0.51,0.571.3,1.052-.12,1.233l-0.51.21v0.511h6.99v-0.511l-0.84-.331a4.916,4.916,0,0,1-1.92-1.293l-9.11-9.775,7.25-6.767a6,6,0,0,1,2.58-1.594l0.87-.27v-0.512h-5.67v0.512l0.57,0.15c0.63,0.181.66,0.752,0.09,1.263l-8.27,7.67v-7.73a1.01,1.01,0,0,1,.72-1.083l0.78-.27v-0.512h-5.85v0.512l0.75,0.27a0.981,0.981,0,0,1,.72,1.083v17.324a1,1,0,0,1-.72,1.082l-0.75.271v0.511h5.85Zm32.91,0.542a11.069,11.069,0,1,0-11.21-11.068A11.12,11.12,0,0,0,1525.68,729.517Zm0.3-1.354c-4.74,0-8.13-4.571-8.13-10.135,0-5.053,3-9.294,7.53-9.294,4.7,0,8.12,4.6,8.12,10.136C1533.5,723.923,1530.5,728.163,1525.98,728.163Zm18.63,0.812v-0.511l-0.78-.271a1.032,1.032,0,0,1-.71-1.082v-8.9h4.22a1.428,1.428,0,0,1,1.5.873l0.45,0.812h0.36V715.2h-0.36l-0.45.782a1.393,1.393,0,0,1-1.5.872h-4.22v-7.579h5.51a1.657,1.657,0,0,1,1.77,1.143l0.39,0.992h0.36v-3.489h-12.38v0.512l0.75,0.27a0.981,0.981,0,0,1,.72,1.083v17.324a1,1,0,0,1-.72,1.082l-0.75.271v0.511h5.84Zm34.65-.751a2.227,2.227,0,0,1-1.35-1.354l-7.95-19.369h-0.36l-8,19.339a2.528,2.528,0,0,1-1.32,1.353l-0.63.271v0.511h4.53v-0.511l-0.63-.24a0.845,0.845,0,0,1-.42-1.294l1.65-4h8.66l1.65,4.091a0.855,0.855,0,0,1-.48,1.2l-0.57.24v0.511h5.94v-0.511Zm-10.14-15.941,3.78,9.294h-7.58Zm18.04,16.692v-0.511l-0.78-.271a1.029,1.029,0,0,1-.72-1.082v-8.03h1.95c1.5,0,2.07.36,2.97,1.834l3.95,6.587c0.63,1.052,1.08,1.473,2.04,1.473h3.21v-0.511a3.544,3.544,0,0,1-2.34-1.594l-3.75-5.684c-1.22-1.835-1.67-2.376-3.02-2.767,2.78-.722,4.73-2.707,4.73-5.263,0-3.219-2.69-5.234-7.04-5.234h-7.05v0.512l0.75,0.27a1.03,1.03,0,0,1,.72,1.083v17.324a1.029,1.029,0,0,1-.72,1.082l-0.75.271v0.511h5.85Zm-1.5-19.368a5.556,5.556,0,0,1,2.22-.421c3,0,4.65,1.744,4.65,3.97a4.976,4.976,0,0,1-1.05,3.278,3.665,3.665,0,0,1-2.85,1.293h-2.97v-8.12Zm23.58,19.368v-0.511l-0.78-.271a1.029,1.029,0,0,1-.72-1.082V709.276h4.56a1.7,1.7,0,0,1,1.7,1.474l0.33,1.052h0.36v-3.88h-16.78v3.88h0.39l0.33-1.052a1.7,1.7,0,0,1,1.71-1.474h4.52v17.835a1,1,0,0,1-.72,1.082l-0.75.271v0.511h5.85Z"/>
            <path id="Line_1" data-name="Line 1" class="cls-1" d="M1269,743.012V741h346.01v2.014H1269Z"/>
          </g>
        </g>
        <path id="Unchartered_Territory" data-name="Unchartered Territory" class="cls-1" d="M1291.91,467.856q14.25,0,18.14-15.77l7.91-32.4c0.29-1.224.72-1.872,2.38-2.52l1.65-.649,0.08-.36h-9l-0.07.36,1.36,0.649c1.23,0.576,1.37,1.3,1.08,2.52l-8.06,32.98c-2.01,8.137-6.84,12.313-14.18,12.313-7.92,0-11.44-6.408-9.64-13.609l7.77-31.684c0.29-1.224.72-1.872,2.38-2.52l1.65-.649,0.07-.36h-13.39l-0.07.36,1.37,0.649c1.22,0.576,1.37,1.3,1.08,2.52l-7.05,28.8C1274.49,460.367,1281.25,467.856,1291.91,467.856Zm55.06-22.9c1.8-7.057-.44-12.1-6.99-12.1-5.47,0-10,4.393-12.66,9.722l2.37-9.361-9.57,1.728-0.08.36,0.87,0.432c1.29,0.648,1.44,1.224,1.15,2.448l-6.19,24.7a3.608,3.608,0,0,1-2.45,2.881l-1.08.432-0.07.36h11.88l0.07-.36-0.94-.432c-1.22-.576-1.29-1.657-1-2.881l3.88-15.554c3.67-7.057,7.35-10.441,10.73-10.441,3.31,0,5.04,2.736,4.1,6.409l-4.97,20.09a2.452,2.452,0,0,0,2.45,3.169h6.48l0.07-.36-1.08-.432c-1.36-.576-1.87-1.441-1.29-3.6Zm16.91,22.611c8.13,0,11.3-4.753,13.17-10.441l-0.43-.289c-2.52,4.177-5.4,6.337-9.22,6.337-5.9,0-8.49-4.9-8.49-11.017,0-7.921,4.82-17.354,12.45-17.354,3.67,0,6.55,3.024,7.42,9.289h0.36l2.37-9.289a21.933,21.933,0,0,0-9.79-1.945c-12.52,0-20.22,10.3-20.22,21.1C1351.5,462.383,1357.18,467.568,1363.88,467.568Zm48.72-22.611c1.73-6.913-.5-12.1-7.34-12.1-5.47,0-10,4.393-12.67,9.722l7.2-28.588-9.5,1.728-0.07.36,0.93,0.432c1.23,0.577,1.37,1.225,1.08,2.449l-11.01,43.925a3.608,3.608,0,0,1-2.45,2.881l-1.08.432-0.07.36h11.81l0.07-.36-0.94-.432c-1.22-.576-1.29-1.657-1-2.881l3.88-15.554c3.67-7.057,7.06-10.441,10.94-10.441,3.6,0,5.26,2.52,4.32,6.409l-4.96,20.09a2.446,2.446,0,0,0,2.44,3.169h6.41l0.07-.36-1.08-.432c-1.37-.576-1.87-1.441-1.29-3.6Zm32.32-1.872c1.73-6.985-3.09-10.226-11.37-10.226a20.955,20.955,0,0,0-10.8,2.665l-2.3,9.361h0.36l1.58-2.664c2.74-4.609,6.41-7.633,10.8-7.633,4.03,0,6.84,2.808,5.83,6.913l-1.37,5.328-6.26,1.08c-8.71,1.513-15.91,3.745-15.91,11.594,0,4.824,3.46,8.065,8.21,8.065,2.8,0,4.67-.936,7.41-3.385l2.95-2.664c-0.21,2.16,1.22,3.745,2.16,4.681l1.44,1.368,4.89-3.961-1-1.152c-0.94-1.08-.94-2.088-0.51-3.744Zm-11.95,17.426c-2.45,1.872-4.1,2.88-5.9,2.88-2.74,0-4.68-1.872-4.68-5.256,0-3.961,2.74-6.409,8.28-7.921l6.62-1.8-2.73,10.874Zm23.61,6.049,0.07-.36-0.94-.432c-1.29-.576-1.29-1.657-1.01-2.881l4.4-17.5c3.09-6.265,6.26-8.065,9.14-8.065a4.836,4.836,0,0,1,4.6,2.88h0.36l1.73-6.768a9.506,9.506,0,0,0-3.67-.577c-5.61,0-8.85,3.385-11.23,8.57l2.09-8.209-9.72,1.728-0.07.36,0.94,0.432c1.22,0.576,1.36,1.224,1.07,2.448l-6.19,24.7a3.6,3.6,0,0,1-2.44,2.881l-1.08.432-0.07.36h12.02Zm26.41,1.008c4.1,0,5.97-2.088,7.92-6.193l-0.51-.288c-1.36,1.944-2.66,2.88-4.39,2.88-2.44,0-4.1-2.232-3.24-5.688l5.55-22.395h8.06l0.5-2.016h-8.06l1.87-7.561h-0.36l-12.81,9.217-0.07.36h4.53l-5.18,21.026C1475.29,463.175,1478.17,467.568,1482.99,467.568Zm26.41-18.074c9.36,0,14.33-5.4,14.33-10.154,0-3.96-3.53-6.481-8.78-6.481-10.66,0-19.65,10.514-19.65,22.107,0,7.921,3.96,12.6,11.08,12.6,6.12,0,10.44-3.745,13.46-10.009l-0.36-.216c-2.73,3.888-6.04,5.976-9.64,5.976-5.19,0-7.71-3.96-7.71-10.153a20.389,20.389,0,0,1,.51-4.537A29.979,29.979,0,0,0,1509.4,449.494Zm4.83-14.69c2.3,0,3.45,1.8,3.45,4.176,0,3.457-2.81,8.209-9.5,8.209a16.891,16.891,0,0,1-4.97-.792C1505.01,440.348,1509.04,434.8,1514.23,434.8Zm18.49,31.756,0.07-.36-0.93-.432c-1.3-.576-1.3-1.657-1.01-2.881l4.39-17.5c3.1-6.265,6.26-8.065,9.14-8.065a4.85,4.85,0,0,1,4.61,2.88h0.36l1.73-6.768a9.506,9.506,0,0,0-3.67-.577c-5.62,0-8.86,3.385-11.23,8.57l2.08-8.209-9.71,1.728-0.08.36,0.94,0.432c1.22,0.576,1.37,1.224,1.08,2.448l-6.19,24.7a3.608,3.608,0,0,1-2.45,2.881l-1.08.432-0.07.36h12.02Zm30.37-17.066c9.36,0,14.33-5.4,14.33-10.154,0-3.96-3.53-6.481-8.78-6.481-10.66,0-19.65,10.514-19.65,22.107,0,7.921,3.96,12.6,11.08,12.6,6.12,0,10.44-3.745,13.46-10.009l-0.36-.216c-2.73,3.888-6.04,5.976-9.64,5.976-5.19,0-7.71-3.96-7.71-10.153a20.389,20.389,0,0,1,.51-4.537A29.979,29.979,0,0,0,1563.09,449.494Zm4.83-14.69c2.3,0,3.45,1.8,3.45,4.176,0,3.457-2.8,8.209-9.5,8.209a16.891,16.891,0,0,1-4.97-.792C1558.7,440.348,1562.73,434.8,1567.92,434.8Zm20.65,32.764c4.25,0,7.56-2.232,9.79-6.481l-1.51,6.121,9.43-1.728,0.14-.36-0.93-.433c-1.08-.5-1.3-1.728-0.94-3.024l11.88-47.67-9.43,1.728-0.07.36,0.86,0.432a1.855,1.855,0,0,1,1.08,2.521l-3.96,15.77a13.751,13.751,0,0,0-7.2-1.945c-11.8,0-19.43,11.738-19.43,22.827C1578.28,463.1,1582.6,467.568,1588.57,467.568Zm3.02-3.817c-3.52,0-6.04-2.448-6.04-8.5,0-10.3,5.68-20.45,11.8-20.45a8.14,8.14,0,0,1,6.7,3.528l-4.68,18.867C1597.07,461.519,1594.26,463.751,1591.59,463.751ZM1291.76,538.56V538.2l-1.51-.648a2.358,2.358,0,0,1-1.72-2.593V490.314h11.22c2.24,0,3.39,1.152,4.11,3.24l0.79,2.376h0.36v-7.777h-39.88v7.777h0.36l0.79-2.376c0.72-2.088,1.87-3.24,4.11-3.24h11.23v44.645a2.366,2.366,0,0,1-1.73,2.593l-1.51.648v0.36h13.38Zm47,0,1.08-7.561h-0.36l-1.58,2.88c-1.01,1.872-2.66,2.52-4.9,2.52h-15.69V512.276h10.66c1.87,0,3.02.5,3.74,2.089l0.93,2.016H1333V506.012h-0.36l-0.93,2.016c-0.72,1.584-1.87,2.088-3.74,2.088h-10.66v-19.8h13.75c2.23,0,3.46.576,4.25,2.52l0.93,2.376h0.36v-7.057h-29.44v0.36l1.51,0.649a2.364,2.364,0,0,1,1.73,2.592v43.2a2.366,2.366,0,0,1-1.73,2.593l-1.51.648v0.36h31.6Zm17.06,0V538.2l-1.51-.648c-1.37-.721-1.73-1.369-1.73-2.593V514.365h4.32c3.6,0,4.82,1.08,7.12,4.9l9.5,15.77c1.52,2.521,2.81,3.529,5.47,3.529h7.13V538.2a9.461,9.461,0,0,1-5.25-4.105l-7.78-11.809c-4.53-6.913-5.9-8.065-9.36-9,7.63-1.729,11.88-6.625,11.88-12.6,0-7.7-6.69-12.53-16.91-12.53h-16.27v0.36l1.51,0.649c1.37,0.72,1.73,1.368,1.73,2.592v43.2c0,1.224-.36,1.872-1.73,2.593l-1.51.648v0.36h13.39Zm-3.24-47.238a11.429,11.429,0,0,1,4.96-1.008c7.2,0,11.16,4.392,11.16,10.369a12.685,12.685,0,0,1-2.3,7.777,8.108,8.108,0,0,1-7.06,3.744h-6.76V491.322Zm48.07,47.238V538.2l-1.51-.648a2.54,2.54,0,0,1-1.72-2.593V514.365h4.31c3.6,0,4.83,1.08,7.13,4.9l9.5,15.77c1.51,2.521,2.81,3.529,5.47,3.529h7.13V538.2a9.483,9.483,0,0,1-5.26-4.105l-7.77-11.809c-4.54-6.913-5.9-8.065-9.36-9,7.63-1.729,11.88-6.625,11.88-12.6,0-7.7-6.7-12.53-16.92-12.53h-16.26v0.36l1.51,0.649a2.526,2.526,0,0,1,1.72,2.592v43.2a2.528,2.528,0,0,1-1.72,2.593l-1.51.648v0.36h13.38Zm-3.23-47.238a11.393,11.393,0,0,1,4.96-1.008c7.2,0,11.16,4.392,11.16,10.369a12.685,12.685,0,0,1-2.3,7.777,8.108,8.108,0,0,1-7.06,3.744h-6.76V491.322Zm48.07,47.238V538.2l-1.51-.648a2.366,2.366,0,0,1-1.73-2.593v-43.2a2.364,2.364,0,0,1,1.73-2.592l1.51-.649v-0.36H1432.1v0.36l1.51,0.649a2.364,2.364,0,0,1,1.73,2.592v43.2a2.366,2.366,0,0,1-1.73,2.593l-1.51.648v0.36h13.39Zm28.79,0V538.2l-1.51-.648a2.366,2.366,0,0,1-1.73-2.593V490.314h11.23c2.23,0,3.39,1.152,4.1,3.24l0.8,2.376h0.36v-7.777h-39.88v7.777h0.36l0.79-2.376c0.72-2.088,1.87-3.24,4.1-3.24h11.23v44.645a2.368,2.368,0,0,1-1.72,2.593l-1.52.648v0.36h13.39Zm40.31,1.3a26.5,26.5,0,1,0-26.93-26.5A26.661,26.661,0,0,0,1514.59,539.856Zm0.72-2.16c-11.38,0-19.51-11.45-19.51-25.348,0-12.457,7.2-23.331,18.07-23.331,11.3,0,19.5,11.522,19.5,25.348C1533.37,526.822,1526.17,537.7,1515.31,537.7Zm42.6,0.864V538.2l-1.51-.648c-1.37-.721-1.73-1.369-1.73-2.593V514.365h4.32c3.6,0,4.82,1.08,7.13,4.9l9.5,15.77c1.51,2.521,2.81,3.529,5.47,3.529h7.12V538.2a9.461,9.461,0,0,1-5.25-4.105l-7.77-11.809c-4.54-6.913-5.91-8.065-9.36-9,7.63-1.729,11.88-6.625,11.88-12.6,0-7.7-6.7-12.53-16.92-12.53h-16.27v0.36l1.51,0.649c1.37,0.72,1.73,1.368,1.73,2.592v43.2c0,1.224-.36,1.872-1.73,2.593l-1.51.648v0.36h13.39Zm-3.24-47.238a11.48,11.48,0,0,1,4.97-1.008c7.2,0,11.16,4.392,11.16,10.369a12.619,12.619,0,0,1-2.31,7.777,8.079,8.079,0,0,1-7.05,3.744h-6.77V491.322Zm52.47,47.238V538.2l-1.51-.648a2.366,2.366,0,0,1-1.73-2.593V515.085l12.02-21.891c1.23-2.3,2.52-3.744,3.96-4.177l1.59-.5v-0.36h-10.44v0.36l1.73,0.5c1.22,0.361,1.72,1.657.79,3.313L1602.61,512.2l-11.38-19.3c-1.22-2.088-.36-3.456,1.01-3.889l1.73-.5v-0.36h-15.41v0.36l0.94,0.5a11.143,11.143,0,0,1,4.03,4.033l13.46,22.467v19.442a2.366,2.366,0,0,1-1.73,2.593l-1.51.648v0.36h13.39Z"/>
      </g>
    </g>
  </g>
</svg>
