<svg id="MODULE_3_CERTONA_copy" data-name="MODULE 3 CERTONA copy" xmlns="http://www.w3.org/2000/svg" width="1920" height="1226" viewBox="0 0 1920 1226">
  <defs>
    <style>
      .cls-1 {
        fill: #fff;
        fill-rule: evenodd;
      }
    </style>
  </defs>
  <g id="TXT">
    <path id="Explore_the_New_BR_Look" data-name="Explore the New BR Look" class="cls-1" d="M561.637,252.52l1.081-7.559h-0.36l-1.585,2.88c-1.008,1.872-2.664,2.52-4.9,2.52h-15.7V226.242h10.656c1.872,0,3.024.5,3.744,2.088l0.936,2.016h0.36V219.979h-0.36L554.581,222c-0.72,1.583-1.872,2.087-3.744,2.087H540.181v-19.8h13.752c2.232,0,3.456.576,4.248,2.52l0.936,2.375h0.36v-7.055H530.028v0.36l1.512,0.648a2.363,2.363,0,0,1,1.728,2.592v43.2a2.363,2.363,0,0,1-1.728,2.592l-1.512.647v0.36h31.609Zm45.652-1.007a6.792,6.792,0,0,1-3.024-2.88l-15.193-24.047,11.161-18.07a7.829,7.829,0,0,1,3.96-3.528l1.368-.5v-0.36h-9.5v0.36l1.008,0.5a2.233,2.233,0,0,1,.576,3.24l-10.009,16.055-10.008-15.839c-1.152-1.872-.648-2.952.648-3.456l1.3-.5v-0.36H565.311v0.36l1.3,0.5c1.223,0.5,1.8,1.368,2.88,3.024l13.392,20.95-13.1,20.663c-1.656,2.664-2.449,3.24-3.889,3.888l-1.44.647v0.36h10.225v-0.36l-1.872-.647c-1.44-.5-1.728-1.584-0.648-3.24l12.168-19.007,12.313,19.367c1.008,1.584.576,2.376-.648,2.88l-1.512.647v0.36h14.256v-0.36Zm17,1.007v-0.36l-1.512-.647a2.363,2.363,0,0,1-1.728-2.592V228.042a35.847,35.847,0,0,0,7.848.72c11.089,0,15.985-6.408,15.985-13.967,0-7.487-7.2-12.671-17.713-12.671H610.892v0.36l1.512,0.648a2.363,2.363,0,0,1,1.728,2.592v43.2a2.363,2.363,0,0,1-1.728,2.592l-1.512.647v0.36h13.393Zm3.528-25.918a23.322,23.322,0,0,1-6.768-1.008v-20.3a11.456,11.456,0,0,1,4.968-1.008c7.7,0,11.952,4.463,11.952,10.943C637.965,221.563,634.365,226.6,627.813,226.6Zm50.836,25.918,1.08-7.487h-0.36l-1.44,2.808c-1.008,2.016-2.448,2.52-4.68,2.52H658.2V205.724a2.363,2.363,0,0,1,1.728-2.592l1.512-.648v-0.36H648.048v0.36l1.512,0.648a2.363,2.363,0,0,1,1.728,2.592v43.2a2.363,2.363,0,0,1-1.728,2.592l-1.512.647v0.36h30.6Zm26.571,1.3a26.5,26.5,0,1,0-26.929-26.494A26.659,26.659,0,0,0,705.22,253.816Zm0.72-2.159c-11.376,0-19.513-11.448-19.513-25.343,0-12.455,7.2-23.326,18.073-23.326,11.3,0,19.513,11.519,19.513,25.342C724.013,240.785,716.813,251.657,705.94,251.657Zm42.63,0.863v-0.36l-1.512-.647c-1.368-.72-1.728-1.368-1.728-2.592V228.33h4.32c3.6,0,4.824,1.08,7.128,4.9l9.5,15.767c1.512,2.52,2.808,3.527,5.472,3.527h7.128v-0.36a9.46,9.46,0,0,1-5.256-4.1L765.85,236.25c-4.536-6.912-5.9-8.064-9.36-9,7.632-1.728,11.881-6.623,11.881-12.6,0-7.7-6.7-12.527-16.921-12.527H735.177v0.36l1.512,0.648c1.368,0.72,1.728,1.368,1.728,2.592v43.2c0,1.224-.36,1.872-1.728,2.592l-1.512.647v0.36H748.57Zm-3.24-47.228a11.456,11.456,0,0,1,4.968-1.008c7.2,0,11.16,4.391,11.16,10.367a12.642,12.642,0,0,1-2.3,7.776,8.1,8.1,0,0,1-7.056,3.743H745.33V205.292Zm66.316,47.228,1.081-7.559h-0.36l-1.585,2.88c-1.008,1.872-2.664,2.52-4.9,2.52h-15.7V226.242h10.656c1.872,0,3.024.5,3.744,2.088l0.936,2.016h0.36V219.979h-0.36L804.59,222c-0.72,1.583-1.872,2.087-3.744,2.087H790.19v-19.8h13.752c2.232,0,3.456.576,4.248,2.52l0.936,2.375h0.361v-7.055h-29.45v0.36l1.512,0.648a2.363,2.363,0,0,1,1.728,2.592v43.2a2.363,2.363,0,0,1-1.728,2.592l-1.512.647v0.36h31.609Zm29.236,1.008c4.1,0,5.976-2.087,7.92-6.191l-0.5-.288c-1.368,1.944-2.664,2.88-4.392,2.88-2.448,0-4.1-2.232-3.24-5.688l5.544-22.39h8.065l0.5-2.016h-8.065l1.872-7.56h-0.36l-12.816,9.216-0.072.36h4.536l-5.184,21.022C833.178,249.137,836.058,253.528,840.882,253.528Zm43.635-22.606c1.728-6.912-.5-12.095-7.344-12.095-5.472,0-10.008,4.391-12.672,9.719l7.2-28.582-9.5,1.728-0.073.36,0.936,0.432c1.224,0.576,1.369,1.224,1.081,2.448l-11.017,43.917a3.6,3.6,0,0,1-2.448,2.879l-1.08.432-0.072.36h11.808l0.072-.36-0.936-.432c-1.224-.575-1.3-1.655-1.008-2.879l3.888-15.551c3.673-7.056,7.057-10.439,10.945-10.439,3.6,0,5.256,2.519,4.32,6.407l-4.968,20.087a2.45,2.45,0,0,0,2.448,3.167H882.5l0.072-.36-1.08-.432c-1.368-.575-1.872-1.439-1.3-3.6Zm18.364,4.536c9.361,0,14.329-5.4,14.329-10.152,0-3.959-3.528-6.479-8.785-6.479-10.656,0-19.656,10.511-19.656,22.1,0,7.92,3.96,12.6,11.088,12.6,6.12,0,10.441-3.743,13.465-10.007l-0.36-.216c-2.736,3.888-6.049,5.976-9.649,5.976-5.184,0-7.7-3.96-7.7-10.152a20.345,20.345,0,0,1,.5-4.535A30.04,30.04,0,0,0,902.881,235.458Zm4.824-14.687c2.3,0,3.457,1.8,3.457,4.175,0,3.456-2.808,8.208-9.5,8.208a16.84,16.84,0,0,1-4.968-.792C898.489,226.314,902.521,220.771,907.705,220.771Zm67.469,32.613v-47.66a2.363,2.363,0,0,1,1.728-2.592l1.512-.648v-0.36h-9v0.36l1.512,0.648a2.363,2.363,0,0,1,1.728,2.592v34.413l-29.521-38.013H934.2v0.36l1.512,0.648a2.363,2.363,0,0,1,1.728,2.592v43.2a2.363,2.363,0,0,1-1.728,2.592l-1.512.647v0.36h9v-0.36l-1.512-.647a2.363,2.363,0,0,1-1.728-2.592V208.6l34.85,44.781h0.36Zm37.736-.864,1.08-7.559h-0.36l-1.59,2.88c-1.01,1.872-2.66,2.52-4.89,2.52h-15.7V226.242h10.661c1.87,0,3.02.5,3.74,2.088l0.94,2.016h0.36V219.979h-0.36L1005.85,222c-0.72,1.583-1.87,2.087-3.74,2.087H991.449v-19.8H1005.2c2.23,0,3.46.576,4.25,2.52l0.94,2.375h0.36v-7.055H981.3v0.36l1.512,0.648a2.363,2.363,0,0,1,1.728,2.592v43.2a2.363,2.363,0,0,1-1.728,2.592l-1.512.647v0.36h31.613Zm61.49-50.036,1.58,0.648c1.15,0.432,1.01,1.656.72,2.592l-11.73,34.917-11.81-34.917c-0.36-1.152-.29-2.088.86-2.592l1.44-.648v-0.36H1042.5v0.36l0.94,0.648a6.386,6.386,0,0,1,2.52,3.24l1.73,4.895-9.8,29.014-11.88-34.557c-0.29-.936-0.43-2.088.72-2.592l1.44-.648v-0.36h-12.81v0.36l0.93,0.648a6.334,6.334,0,0,1,2.52,3.24l16.92,47.156h0.36l12.82-38.733,13.75,38.733h0.36l15.99-47.156a5.408,5.408,0,0,1,2.23-3.24l1.22-.648v-0.36h-8.06v0.36Zm44.5,50.036c15.05,0,20.67-7.055,20.67-14.111,0-7.415-6.12-12.383-15.41-13.679,6.41-1.584,10.73-5.615,10.73-10.655,0-7.127-6.48-11.951-16.35-11.951h-16.27v0.36l1.51,0.648c1.37,0.72,1.73,1.368,1.73,2.592v43.2c0,1.224-.36,1.872-1.73,2.592l-1.51.647v0.36h16.63Zm-6.48-47.228a11.48,11.48,0,0,1,4.97-1.008c6.84,0,10.58,3.959,10.58,9.575,0,5.9-3.52,10.511-10.22,10.511h-5.33V205.292Zm7.13,45.069a21.536,21.536,0,0,1-7.13-1.08V226.53h6.41c10.01,0,13.39,6.12,13.39,11.735C1132.22,243.521,1129.27,250.361,1119.55,250.361Zm36.29,2.159v-0.36l-1.51-.647c-1.37-.72-1.73-1.368-1.73-2.592V228.33h4.32c3.6,0,4.83,1.08,7.13,4.9l9.5,15.767c1.52,2.52,2.81,3.527,5.48,3.527h7.12v-0.36a9.453,9.453,0,0,1-5.25-4.1l-7.78-11.807c-4.53-6.912-5.9-8.064-9.36-9,7.63-1.728,11.88-6.623,11.88-12.6,0-7.7-6.69-12.527-16.92-12.527h-16.27v0.36l1.51,0.648c1.37,0.72,1.73,1.368,1.73,2.592v43.2c0,1.224-.36,1.872-1.73,2.592l-1.51.647v0.36h13.39Zm-3.24-47.228a11.48,11.48,0,0,1,4.97-1.008c7.2,0,11.16,4.391,11.16,10.367a12.682,12.682,0,0,1-2.3,7.776,8.11,8.11,0,0,1-7.06,3.743h-6.77V205.292Zm82.59,47.228,1.08-7.487h-0.36l-1.44,2.808c-1.01,2.016-2.45,2.52-4.68,2.52h-15.05V205.724a2.364,2.364,0,0,1,1.73-2.592l1.51-.648v-0.36h-13.39v0.36l1.51,0.648a2.364,2.364,0,0,1,1.73,2.592v43.2a2.364,2.364,0,0,1-1.73,2.592l-1.51.647v0.36h30.6Zm26.57,1.3a26.5,26.5,0,1,0-26.93-26.494A26.654,26.654,0,0,0,1261.76,253.816Zm0.72-2.159c-11.37,0-19.51-11.448-19.51-25.343,0-12.455,7.2-23.326,18.07-23.326,11.31,0,19.52,11.519,19.52,25.342C1280.56,240.785,1273.36,251.657,1262.48,251.657Zm57.75,2.159a26.5,26.5,0,1,0-26.93-26.494A26.661,26.661,0,0,0,1320.23,253.816Zm0.72-2.159c-11.37,0-19.51-11.448-19.51-25.343,0-12.455,7.2-23.326,18.07-23.326,11.31,0,19.52,11.519,19.52,25.342C1339.03,240.785,1331.82,251.657,1320.95,251.657Zm42.63,0.863v-0.36l-1.51-.647a2.364,2.364,0,0,1-1.73-2.592v-21.6l20.23,21.383c1.37,1.512,1.08,2.52.08,2.952l-1.23.5v0.36h16.06v-0.36l-1.51-.576a10.106,10.106,0,0,1-4.4-2.951l-23.25-24.911,17.49-16.774a16,16,0,0,1,6.2-3.816l1.72-.648v-0.36h-11.52v0.36l1.23,0.36c1.22,0.36,1.29,1.728-.07,3.024l-21.03,19.942V205.724a2.364,2.364,0,0,1,1.73-2.592l1.51-.648v-0.36h-13.39v0.36l1.51,0.648a2.364,2.364,0,0,1,1.73,2.592v43.2a2.364,2.364,0,0,1-1.73,2.592l-1.51.647v0.36h13.39Z"/>
  </g>
</svg>
